<?xml version="1.0" encoding="UTF-8"?>
<svg xmlns="http://www.w3.org/2000/svg" xmlns:xlink="http://www.w3.org/1999/xlink" width="150px" height="133px" viewBox="0 0 149 133" version="1.1">
<g id="surface1">
<path style=" stroke:none;fill-rule:nonzero;fill:rgb(0%,0%,0%);fill-opacity:1;" d="M 82.257812 12.804688 C 82.804688 12.847656 83.6875 12.847656 84.253906 12.804688 C 84.800781 12.765625 84.339844 12.742188 83.246094 12.742188 C 82.152344 12.742188 81.6875 12.765625 82.257812 12.804688 Z M 82.257812 12.804688 "/>
<path style=" stroke:none;fill-rule:nonzero;fill:rgb(0%,0%,0%);fill-opacity:1;" d="M 77.988281 13.082031 C 74.375 13.523438 68.550781 15.378906 65.796875 16.984375 C 65.503906 17.152344 64.726562 17.574219 64.050781 17.933594 C 62.011719 19.007812 58.417969 21.792969 56.210938 23.945312 C 54.550781 25.589844 52.34375 28.164062 52.34375 28.460938 C 52.34375 28.566406 52.257812 28.691406 52.175781 28.734375 C 51.964844 28.820312 50.15625 31.414062 49.988281 31.878906 C 49.800781 32.386719 48.347656 34.601562 48.222656 34.601562 C 48.140625 34.601562 48.140625 34.21875 48.179688 33.757812 C 48.222656 33.25 48.179688 32.933594 48.035156 32.976562 C 47.929688 33.019531 47.59375 32.828125 47.296875 32.554688 C 46.878906 32.152344 46.75 32.132812 46.605469 32.386719 C 46.351562 32.847656 45.300781 33.335938 44.566406 33.335938 C 44.207031 33.335938 43.703125 33.441406 43.472656 33.566406 C 43.179688 33.734375 42.988281 33.734375 42.820312 33.566406 C 42.527344 33.269531 42.042969 33.269531 42.042969 33.546875 C 42.042969 33.652344 42.230469 33.757812 42.464844 33.757812 C 43.136719 33.757812 42.96875 34.347656 42.042969 35.234375 C 41.582031 35.675781 41.203125 36.160156 41.203125 36.289062 C 41.203125 36.730469 41.9375 37.492188 42.253906 37.40625 C 42.503906 37.320312 42.527344 37.34375 42.273438 37.511719 C 42.105469 37.636719 42.023438 37.933594 42.085938 38.269531 C 42.148438 38.566406 42.128906 38.820312 42.042969 38.820312 C 41.769531 38.820312 41.9375 39.726562 42.230469 39.832031 C 42.441406 39.894531 42.484375 39.75 42.421875 39.15625 C 42.335938 38.3125 42.335938 38.3125 42.90625 38.609375 C 43.367188 38.863281 43.453125 39.347656 42.988281 39.15625 C 42.800781 39.09375 42.671875 39.15625 42.671875 39.347656 C 42.671875 39.789062 43.074219 39.960938 43.578125 39.726562 C 44.480469 39.304688 45.660156 38.988281 45.785156 39.136719 C 45.867188 39.199219 45.933594 39.644531 45.933594 40.085938 C 45.933594 40.929688 45.320312 41.878906 44.945312 41.648438 C 44.816406 41.5625 44.503906 41.625 44.230469 41.773438 C 43.808594 42.003906 43.660156 42.003906 43.347656 41.710938 C 42.839844 41.246094 42.695312 41.265625 42.230469 41.792969 C 41.855469 42.238281 41.894531 42.828125 42.335938 42.828125 C 42.464844 42.828125 42.695312 43.019531 42.839844 43.269531 C 42.988281 43.503906 43.242188 43.652344 43.410156 43.585938 C 43.554688 43.546875 43.746094 43.609375 43.789062 43.757812 C 43.851562 43.925781 43.765625 44.03125 43.554688 44.011719 C 43.347656 43.988281 43.179688 44.179688 43.136719 44.453125 C 43.050781 45 43.074219 45.023438 43.808594 44.726562 C 44.292969 44.558594 44.375 44.601562 44.480469 45.042969 C 44.648438 45.738281 44.417969 46.371094 43.976562 46.332031 C 43.554688 46.308594 42.90625 45.234375 42.882812 44.539062 C 42.882812 44.03125 41.917969 42.933594 41.75 43.230469 C 41.558594 43.503906 41.875 44.304688 42.148438 44.304688 C 42.316406 44.304688 42.378906 44.472656 42.316406 44.683594 C 42.191406 45.234375 42.609375 46.203125 42.988281 46.203125 C 43.15625 46.203125 43.304688 46.351562 43.304688 46.519531 C 43.304688 46.6875 43.429688 46.835938 43.597656 46.835938 C 43.976562 46.835938 44.144531 48.1875 44.144531 51.289062 C 44.144531 52.976562 44.0625 53.820312 43.894531 53.925781 C 43.765625 54.011719 43.199219 54.050781 42.632812 54.03125 C 42.042969 54.011719 41.621094 54.074219 41.621094 54.222656 C 41.621094 54.328125 41.390625 54.433594 41.097656 54.433594 C 40.613281 54.433594 40.425781 54.644531 40.699219 54.894531 C 40.761719 54.960938 41.140625 54.9375 41.539062 54.855469 C 42.128906 54.707031 42.296875 54.75 42.484375 55.085938 C 42.589844 55.296875 42.839844 55.488281 43.050781 55.488281 C 43.386719 55.464844 43.386719 55.464844 43.050781 55.191406 C 42.777344 54.980469 42.738281 54.875 42.925781 54.683594 C 43.074219 54.539062 43.242188 54.433594 43.347656 54.433594 C 43.554688 54.433594 44.3125 56.203125 44.480469 57.132812 C 44.542969 57.554688 44.902344 58.90625 45.238281 60.128906 C 45.574219 61.351562 45.953125 62.617188 46.035156 62.976562 C 47.152344 67.027344 49.820312 72.851562 51.816406 75.53125 C 53.289062 77.511719 56.714844 80.953125 58.3125 82.050781 C 59.554688 82.914062 59.554688 82.703125 58.292969 81.585938 C 53.5625 77.386719 49.945312 72.175781 47.886719 66.5625 C 44.710938 57.976562 44.671875 48.800781 47.761719 39.558594 C 48.390625 37.722656 50.09375 34.03125 51.207031 32.070312 C 53.375 28.335938 57.453125 23.691406 60.960938 20.949219 C 65.125 17.699219 70.546875 15.0625 75.257812 13.964844 C 77.78125 13.375 78.242188 13.292969 79.082031 13.269531 C 79.585938 13.25 80.28125 13.164062 80.617188 13.082031 C 81.183594 12.933594 81.144531 12.910156 80.300781 12.910156 C 79.777344 12.933594 78.746094 12.996094 77.988281 13.082031 Z M 46.246094 34.601562 C 46.246094 34.707031 46.207031 34.8125 46.164062 34.8125 C 46.101562 34.8125 45.996094 34.707031 45.933594 34.601562 C 45.867188 34.472656 45.910156 34.390625 46.015625 34.390625 C 46.140625 34.390625 46.246094 34.472656 46.246094 34.601562 Z M 47.929688 35.65625 C 47.929688 35.761719 47.824219 35.867188 47.699219 35.867188 C 47.59375 35.867188 47.550781 35.761719 47.613281 35.65625 C 47.675781 35.527344 47.78125 35.445312 47.84375 35.445312 C 47.886719 35.445312 47.929688 35.527344 47.929688 35.65625 Z M 46.667969 36.160156 C 46.667969 36.5 46.289062 36.816406 46.101562 36.625 C 45.933594 36.457031 46.207031 35.867188 46.457031 35.867188 C 46.5625 35.867188 46.667969 35.992188 46.667969 36.160156 Z M 46.667969 37.660156 C 47.003906 38.058594 46.730469 38.820312 46.246094 38.820312 C 45.722656 38.820312 45.574219 38.546875 45.742188 37.871094 C 45.890625 37.28125 46.269531 37.175781 46.667969 37.660156 Z M 43.722656 37.785156 C 43.722656 37.890625 43.492188 37.976562 43.199219 37.976562 C 42.503906 37.976562 42.503906 37.660156 43.199219 37.636719 C 43.492188 37.617188 43.722656 37.679688 43.722656 37.785156 Z M 44.039062 38.609375 C 44.101562 38.714844 44.0625 38.820312 43.957031 38.820312 C 43.828125 38.820312 43.722656 38.714844 43.722656 38.609375 C 43.722656 38.480469 43.765625 38.398438 43.808594 38.398438 C 43.871094 38.398438 43.976562 38.480469 44.039062 38.609375 Z M 44.609375 43.019531 C 44.503906 43.082031 44.355469 43.335938 44.292969 43.566406 C 44.207031 43.882812 44.1875 43.863281 44.167969 43.398438 C 44.144531 43.058594 44.019531 42.828125 43.851562 42.828125 C 43.703125 42.828125 43.453125 42.679688 43.304688 42.511719 C 43.09375 42.257812 43.09375 42.195312 43.386719 42.195312 C 43.578125 42.195312 43.722656 42.28125 43.722656 42.386719 C 43.722656 42.722656 44.566406 42.554688 44.585938 42.195312 C 44.609375 42.027344 44.671875 42.109375 44.710938 42.386719 C 44.777344 42.660156 44.710938 42.933594 44.609375 43.019531 Z M 44.609375 43.019531 "/>
<path style=" stroke:none;fill-rule:nonzero;fill:rgb(0%,0%,0%);fill-opacity:1;" d="M 87.511719 13.226562 C 87.828125 13.269531 88.332031 13.269531 88.667969 13.226562 C 88.984375 13.1875 88.710938 13.144531 88.078125 13.144531 C 87.449219 13.144531 87.175781 13.1875 87.511719 13.226562 Z M 87.511719 13.226562 "/>
<path style=" stroke:none;fill-rule:nonzero;fill:rgb(0%,0%,0%);fill-opacity:1;" d="M 90.351562 13.648438 C 90.601562 13.691406 90.980469 13.691406 91.191406 13.648438 C 91.378906 13.585938 91.171875 13.542969 90.707031 13.566406 C 90.246094 13.566406 90.078125 13.609375 90.351562 13.648438 Z M 90.351562 13.648438 "/>
<path style=" stroke:none;fill-rule:nonzero;fill:rgb(0%,0%,0%);fill-opacity:1;" d="M 92.347656 14.070312 C 92.535156 14.113281 92.832031 14.113281 92.976562 14.070312 C 93.105469 14.007812 92.957031 13.964844 92.597656 13.964844 C 92.261719 13.964844 92.136719 14.007812 92.347656 14.070312 Z M 92.347656 14.070312 "/>
<path style=" stroke:none;fill-rule:nonzero;fill:rgb(0%,0%,0%);fill-opacity:1;" d="M 84.085938 14.558594 C 83.6875 14.664062 83.855469 14.746094 84.820312 14.851562 C 92.328125 15.78125 98.84375 18.882812 104.015625 24.03125 C 109.375 29.347656 112.378906 35.253906 113.957031 43.566406 C 114.398438 45.824219 114.335938 53.1875 113.851562 55.59375 C 113.011719 59.894531 111.980469 62.996094 110.238281 66.480469 C 105.042969 76.878906 95.332031 84.265625 84.464844 86.140625 C 83.558594 86.289062 82.804688 86.332031 82.78125 86.246094 C 82.742188 86.140625 83.117188 84.8125 83.601562 83.292969 C 84.863281 79.390625 85.242188 77.261719 85.242188 73.738281 L 85.242188 70.761719 L 84.402344 69.75 C 83.9375 69.199219 83.183594 68.335938 82.699219 67.828125 C 82.234375 67.324219 81.625 66.480469 81.375 65.929688 C 81.058594 65.234375 80.828125 65.003906 80.679688 65.148438 C 80.53125 65.296875 80.636719 65.65625 81.015625 66.289062 C 81.3125 66.816406 81.5625 67.46875 81.5625 67.746094 C 81.5625 68.460938 82.027344 69.03125 82.613281 69.074219 C 83.015625 69.09375 83.183594 69.304688 83.476562 70.148438 C 83.960938 71.519531 83.960938 71.902344 83.457031 72.722656 C 82.972656 73.546875 81.226562 74.476562 80.21875 74.476562 C 79.820312 74.476562 79.230469 74.582031 78.914062 74.6875 C 77.78125 75.128906 77.359375 74.644531 76.917969 72.34375 C 76.792969 71.605469 76.371094 70.382812 75.992188 69.621094 C 75.613281 68.863281 75.234375 67.785156 75.171875 67.21875 C 74.984375 66.015625 73.765625 64.136719 73.132812 64.136719 C 72.921875 64.136719 72.628906 63.945312 72.480469 63.714844 C 72.207031 63.292969 71.683594 63.125 71.683594 63.460938 C 71.683594 63.566406 71.957031 64.050781 72.273438 64.582031 C 73.847656 67.027344 75.003906 69.199219 75.128906 69.9375 C 75.214844 70.382812 75.46875 71.078125 75.699219 71.5 C 75.910156 71.902344 76.160156 72.574219 76.222656 73 C 76.308594 73.398438 76.726562 74.222656 77.167969 74.8125 C 77.609375 75.402344 78.050781 76.183594 78.117188 76.542969 C 78.304688 77.492188 78.683594 77.703125 80.15625 77.765625 C 81.226562 77.808594 81.457031 77.894531 81.519531 78.210938 C 81.585938 78.632812 79.335938 82.34375 78.703125 82.808594 C 78.492188 82.976562 77.570312 83.609375 76.664062 84.199219 C 75.78125 84.792969 74.855469 85.507812 74.625 85.804688 C 74.246094 86.3125 74.121094 86.332031 73.027344 86.183594 C 70.402344 85.867188 65.585938 84.199219 63.023438 82.722656 C 62.582031 82.492188 61.886719 82.089844 61.464844 81.859375 C 61.066406 81.628906 60.480469 81.269531 60.164062 81.101562 C 58.984375 80.402344 60.792969 81.859375 62.539062 83.019531 C 68.488281 86.964844 73.972656 88.609375 81.144531 88.609375 C 85.136719 88.609375 86.734375 88.421875 90.078125 87.511719 C 94.785156 86.246094 99.640625 83.777344 103.320312 80.761719 C 111.917969 73.695312 116.941406 64.136719 117.929688 52.976562 C 119.445312 35.910156 108.996094 20.085938 93.398438 15.800781 C 90.035156 14.875 85.285156 14.242188 84.085938 14.558594 Z M 84.085938 14.558594 "/>
<path style=" stroke:none;fill-rule:nonzero;fill:rgb(0%,0%,0%);fill-opacity:1;" d="M 93.714844 14.492188 C 93.839844 14.535156 94.09375 14.535156 94.238281 14.492188 C 94.367188 14.429688 94.261719 14.386719 93.964844 14.386719 C 93.671875 14.386719 93.566406 14.429688 93.714844 14.492188 Z M 93.714844 14.492188 "/>
<path style=" stroke:none;fill-rule:nonzero;fill:rgb(0%,0%,0%);fill-opacity:1;" d="M 94.703125 14.789062 C 94.847656 15 95.859375 15.167969 95.859375 14.980469 C 95.859375 14.894531 95.585938 14.769531 95.25 14.726562 C 94.890625 14.683594 94.660156 14.707031 94.703125 14.789062 Z M 94.703125 14.789062 "/>
<path style=" stroke:none;fill-rule:nonzero;fill:rgb(0%,0%,0%);fill-opacity:1;" d="M 96.234375 15.339844 C 96.363281 15.378906 96.613281 15.378906 96.761719 15.339844 C 96.886719 15.273438 96.78125 15.234375 96.488281 15.234375 C 96.195312 15.234375 96.089844 15.273438 96.234375 15.339844 Z M 96.234375 15.339844 "/>
<path style=" stroke:none;fill-rule:nonzero;fill:rgb(0%,0%,0%);fill-opacity:1;" d="M 97.117188 15.695312 C 97.117188 15.738281 97.308594 15.824219 97.539062 15.886719 C 97.769531 15.949219 97.917969 15.90625 97.832031 15.800781 C 97.730469 15.613281 97.117188 15.527344 97.117188 15.695312 Z M 97.117188 15.695312 "/>
<path style=" stroke:none;fill-rule:nonzero;fill:rgb(0%,0%,0%);fill-opacity:1;" d="M 99.285156 16.667969 C 99.976562 17.027344 100.777344 17.46875 101.070312 17.699219 C 101.386719 17.910156 101.742188 18.121094 101.847656 18.164062 C 102.5625 18.4375 105.757812 20.949219 107.398438 22.488281 C 112.105469 26.960938 115.808594 33.019531 117.425781 38.96875 C 117.613281 39.644531 117.847656 40.527344 117.953125 40.929688 C 118.265625 42.027344 118.5625 43.988281 118.75 45.929688 C 118.9375 47.996094 119.191406 48.460938 119.191406 46.730469 C 119.191406 42.28125 116.5625 33.902344 113.894531 29.917969 C 113.453125 29.261719 113.09375 28.652344 113.09375 28.566406 C 113.09375 28.503906 112.886719 28.1875 112.632812 27.871094 C 112.359375 27.554688 111.917969 26.960938 111.625 26.582031 C 110.953125 25.65625 107.796875 22.152344 107.652344 22.152344 C 107.585938 22.132812 107.0625 21.710938 106.472656 21.183594 C 104.625 19.496094 99.136719 16.011719 98.339844 16.035156 C 98.191406 16.054688 98.613281 16.328125 99.285156 16.667969 Z M 99.285156 16.667969 "/>
<path style=" stroke:none;fill-rule:nonzero;fill:rgb(0%,0%,0%);fill-opacity:1;" d="M 41.683594 29.769531 C 41.308594 30.148438 41.347656 30.445312 41.726562 30.296875 C 41.9375 30.210938 42.042969 30.316406 42.042969 30.589844 C 42.042969 30.929688 42.191406 31.011719 42.882812 31.035156 C 43.347656 31.054688 43.851562 31.078125 43.996094 31.097656 C 44.125 31.117188 44.460938 31.078125 44.734375 30.972656 C 45.007812 30.886719 45.40625 30.90625 45.722656 31.054688 C 46.207031 31.265625 46.207031 31.308594 45.867188 31.5625 C 45.53125 31.816406 45.53125 31.835938 45.890625 31.964844 C 46.289062 32.132812 46.941406 31.710938 46.75 31.414062 C 46.6875 31.308594 46.75 31.226562 46.878906 31.226562 C 47.003906 31.226562 47.152344 31.371094 47.214844 31.542969 C 47.277344 31.710938 47.507812 31.898438 47.738281 31.964844 C 47.949219 32.046875 48.140625 32.214844 48.140625 32.363281 C 48.140625 32.53125 48.285156 32.765625 48.453125 32.914062 C 48.726562 33.125 48.769531 33.101562 48.769531 32.722656 C 48.769531 32.492188 49.105469 31.753906 49.527344 31.097656 C 49.945312 30.464844 50.21875 29.851562 50.136719 29.789062 C 50.050781 29.707031 48.179688 29.621094 45.972656 29.578125 C 42.90625 29.515625 41.875 29.578125 41.683594 29.769531 Z M 43.722656 30.378906 C 43.722656 30.484375 43.621094 30.589844 43.492188 30.589844 C 43.386719 30.589844 43.347656 30.484375 43.410156 30.378906 C 43.472656 30.253906 43.578125 30.167969 43.640625 30.167969 C 43.683594 30.167969 43.722656 30.253906 43.722656 30.378906 Z M 47.71875 30.253906 C 47.71875 30.296875 47.570312 30.378906 47.402344 30.464844 C 47.234375 30.527344 47.089844 30.484375 47.089844 30.378906 C 47.089844 30.253906 47.234375 30.167969 47.402344 30.167969 C 47.570312 30.167969 47.71875 30.210938 47.71875 30.253906 Z M 48.855469 31.519531 C 48.789062 31.710938 48.644531 31.859375 48.539062 31.859375 C 48.246094 31.859375 48.308594 31.265625 48.621094 31.160156 C 48.957031 31.035156 49.023438 31.097656 48.855469 31.519531 Z M 48.855469 31.519531 "/>
<path style=" stroke:none;fill-rule:nonzero;fill:rgb(0%,0%,0%);fill-opacity:1;" d="M 40.109375 30.253906 C 39.898438 30.402344 39.730469 30.589844 39.730469 30.675781 C 39.730469 30.90625 40.464844 30.824219 40.738281 30.550781 C 41.308594 29.980469 40.78125 29.726562 40.109375 30.253906 Z M 40.109375 30.253906 "/>
<path style=" stroke:none;fill-rule:nonzero;fill:rgb(0%,0%,0%);fill-opacity:1;" d="M 54.425781 30.761719 C 53.6875 31.5625 52.53125 33.480469 51.523438 35.550781 C 50.429688 37.847656 49.820312 39.242188 49.820312 39.558594 C 49.820312 39.707031 49.738281 39.917969 49.609375 39.980469 C 49.253906 40.210938 49.378906 40.761719 49.925781 41.265625 C 50.386719 41.6875 50.429688 41.816406 50.21875 42.28125 C 50.050781 42.636719 49.777344 42.828125 49.316406 42.871094 C 48.832031 42.914062 48.644531 43.039062 48.601562 43.398438 C 48.496094 44.136719 48.980469 44.074219 51.230469 43.125 C 51.585938 42.953125 52.152344 42.828125 52.511719 42.828125 C 53.101562 42.828125 53.140625 42.765625 53.308594 41.816406 C 53.457031 41.054688 53.605469 40.804688 53.921875 40.761719 C 54.402344 40.699219 55.097656 41.582031 54.675781 41.730469 C 54.550781 41.773438 54.445312 41.984375 54.445312 42.214844 C 54.445312 42.679688 55.179688 42.785156 55.347656 42.34375 C 55.433594 42.195312 55.476562 42.214844 55.476562 42.425781 C 55.496094 42.933594 56.316406 43.101562 58.796875 43.144531 L 60.941406 43.1875 L 61.152344 42.554688 C 61.339844 42.046875 61.464844 41.941406 61.90625 42.027344 C 62.347656 42.109375 62.433594 42.046875 62.433594 41.648438 C 62.433594 41.121094 62.601562 41.054688 63.777344 41.140625 C 64.199219 41.160156 64.347656 41.097656 64.285156 40.886719 C 64.21875 40.738281 63.820312 40.59375 63.359375 40.570312 C 61.90625 40.464844 60.332031 40.066406 60.332031 39.789062 C 60.332031 39.621094 60.183594 39.390625 60.015625 39.242188 C 59.53125 38.839844 59.636719 38.460938 60.332031 38.039062 C 61.066406 37.617188 61.046875 37.257812 60.289062 37.175781 C 59.847656 37.109375 59.722656 37.214844 59.660156 37.597656 C 59.617188 37.914062 59.324219 38.207031 58.816406 38.460938 C 58.375 38.652344 58.019531 38.882812 58.019531 38.945312 C 58.019531 39.007812 58.230469 39.242188 58.503906 39.453125 C 58.882812 39.769531 58.921875 39.894531 58.714844 40.105469 C 58.292969 40.527344 58.375 40.84375 58.964844 41.097656 C 59.742188 41.457031 59.597656 41.773438 58.648438 41.773438 C 58.1875 41.773438 57.472656 41.898438 57.09375 42.070312 C 56.402344 42.363281 56.378906 42.363281 55.621094 41.457031 C 55.203125 40.949219 54.867188 40.421875 54.867188 40.296875 C 54.867188 40.148438 54.339844 40.128906 53.183594 40.210938 C 51.355469 40.359375 51.269531 40.316406 51.207031 39.074219 C 51.1875 38.757812 51.101562 38.375 50.996094 38.230469 C 50.746094 37.828125 51.207031 37.40625 52.070312 37.238281 C 52.765625 37.109375 54.425781 36.035156 54.613281 35.613281 C 54.65625 35.527344 55.097656 35.191406 55.582031 34.851562 C 57.242188 33.734375 59.867188 33.796875 61.699219 35.023438 C 62.160156 35.316406 62.917969 35.675781 63.378906 35.824219 C 64.640625 36.183594 66.679688 37.53125 66.597656 37.953125 C 66.53125 38.164062 66.34375 38.269531 66.050781 38.25 C 65.542969 38.1875 65.460938 38.398438 65.839844 38.777344 C 66.195312 39.136719 67.414062 39.09375 67.542969 38.714844 C 67.625 38.546875 67.582031 38.355469 67.480469 38.292969 C 67.164062 38.101562 67.226562 37.554688 67.5625 37.554688 C 67.710938 37.554688 67.960938 37.679688 68.089844 37.847656 C 68.214844 37.996094 68.699219 38.125 69.140625 38.125 L 69.960938 38.125 L 69.414062 37.679688 C 68.214844 36.6875 67.5 36.289062 66.972656 36.289062 C 66.617188 36.289062 66.28125 36.078125 65.964844 35.65625 C 65.714844 35.296875 65.441406 35.023438 65.355469 35.023438 C 65.273438 35.023438 64.640625 34.664062 63.96875 34.21875 C 62.285156 33.101562 60.710938 32.386719 57.558594 31.308594 C 56.0625 30.800781 54.824219 30.378906 54.804688 30.402344 C 54.78125 30.402344 54.613281 30.570312 54.425781 30.761719 Z M 54.425781 30.761719 "/>
<path style=" stroke:none;fill-rule:nonzero;fill:rgb(0%,0%,0%);fill-opacity:1;" d="M 38.363281 31.4375 C 38.300781 31.542969 38.046875 31.648438 37.816406 31.648438 C 37.605469 31.648438 37.417969 31.792969 37.417969 31.964844 C 37.417969 32.300781 37.605469 32.363281 38.132812 32.152344 C 38.320312 32.089844 38.40625 31.941406 38.34375 31.835938 C 38.28125 31.730469 38.40625 31.648438 38.617188 31.648438 C 38.828125 31.648438 39.140625 31.542969 39.308594 31.4375 C 39.5625 31.265625 39.5 31.226562 39.058594 31.226562 C 38.742188 31.226562 38.425781 31.308594 38.363281 31.4375 Z M 38.363281 31.4375 "/>
<path style=" stroke:none;fill-rule:nonzero;fill:rgb(0%,0%,0%);fill-opacity:1;" d="M 44.25 31.4375 C 44.0625 31.730469 44.125 31.792969 44.839844 31.964844 C 45.28125 32.089844 45.40625 32.046875 45.40625 31.773438 C 45.40625 31.582031 45.320312 31.4375 45.21875 31.4375 C 45.113281 31.4375 44.878906 31.371094 44.710938 31.308594 C 44.542969 31.246094 44.335938 31.308594 44.25 31.4375 Z M 44.25 31.4375 "/>
<path style=" stroke:none;fill-rule:nonzero;fill:rgb(0%,0%,0%);fill-opacity:1;" d="M 36.050781 32.28125 C 36.113281 32.386719 36.261719 32.492188 36.386719 32.492188 C 36.492188 32.492188 36.578125 32.386719 36.578125 32.28125 C 36.578125 32.152344 36.429688 32.070312 36.242188 32.070312 C 36.074219 32.070312 35.988281 32.152344 36.050781 32.28125 Z M 36.050781 32.28125 "/>
<path style=" stroke:none;fill-rule:nonzero;fill:rgb(0%,0%,0%);fill-opacity:1;" d="M 34.894531 32.703125 C 34.894531 32.808594 35.085938 32.914062 35.316406 32.914062 C 35.546875 32.914062 35.738281 32.808594 35.738281 32.703125 C 35.738281 32.574219 35.546875 32.492188 35.316406 32.492188 C 35.085938 32.492188 34.894531 32.574219 34.894531 32.703125 Z M 34.894531 32.703125 "/>
<path style=" stroke:none;fill-rule:nonzero;fill:rgb(0%,0%,0%);fill-opacity:1;" d="M 34.054688 33.125 C 34.054688 33.230469 34.160156 33.335938 34.285156 33.335938 C 34.390625 33.335938 34.433594 33.230469 34.371094 33.125 C 34.308594 32.996094 34.203125 32.914062 34.140625 32.914062 C 34.097656 32.914062 34.054688 32.996094 34.054688 33.125 Z M 34.054688 33.125 "/>
<path style=" stroke:none;fill-rule:nonzero;fill:rgb(0%,0%,0%);fill-opacity:1;" d="M 27.179688 33.460938 C 26.464844 33.820312 26.253906 34.179688 26.761719 34.179688 C 26.929688 34.179688 27.265625 33.945312 27.539062 33.652344 C 28.105469 33.039062 28.085938 33.019531 27.179688 33.460938 Z M 27.179688 33.460938 "/>
<path style=" stroke:none;fill-rule:nonzero;fill:rgb(0%,0%,0%);fill-opacity:1;" d="M 32.4375 33.480469 C 32.625 33.523438 32.917969 33.523438 33.066406 33.480469 C 33.191406 33.417969 33.046875 33.375 32.6875 33.375 C 32.351562 33.375 32.226562 33.417969 32.4375 33.480469 Z M 32.4375 33.480469 "/>
<path style=" stroke:none;fill-rule:nonzero;fill:rgb(0%,0%,0%);fill-opacity:1;" d="M 34.894531 33.734375 C 34.894531 33.839844 35.085938 33.882812 35.316406 33.820312 C 35.546875 33.757812 35.738281 33.671875 35.738281 33.628906 C 35.738281 33.585938 35.546875 33.546875 35.316406 33.546875 C 35.085938 33.546875 34.894531 33.628906 34.894531 33.734375 Z M 34.894531 33.734375 "/>
<path style=" stroke:none;fill-rule:nonzero;fill:rgb(0%,0%,0%);fill-opacity:1;" d="M 38.257812 33.757812 C 38.257812 33.863281 38.363281 33.96875 38.492188 33.96875 C 38.59375 33.96875 38.636719 33.863281 38.574219 33.757812 C 38.511719 33.628906 38.40625 33.546875 38.34375 33.546875 C 38.300781 33.546875 38.257812 33.628906 38.257812 33.757812 Z M 38.257812 33.757812 "/>
<path style=" stroke:none;fill-rule:nonzero;fill:rgb(0%,0%,0%);fill-opacity:1;" d="M 32.898438 34.179688 C 32.835938 34.285156 32.878906 34.390625 32.984375 34.390625 C 33.109375 34.390625 33.214844 34.285156 33.214844 34.179688 C 33.214844 34.050781 33.171875 33.96875 33.128906 33.96875 C 33.066406 33.96875 32.960938 34.050781 32.898438 34.179688 Z M 32.898438 34.179688 "/>
<path style=" stroke:none;fill-rule:nonzero;fill:rgb(0%,0%,0%);fill-opacity:1;" d="M 38.28125 34.894531 C 38.113281 35.085938 38.046875 35.296875 38.132812 35.382812 C 38.320312 35.570312 38.742188 35.105469 38.636719 34.8125 C 38.59375 34.640625 38.46875 34.664062 38.28125 34.894531 Z M 38.28125 34.894531 "/>
<path style=" stroke:none;fill-rule:nonzero;fill:rgb(0%,0%,0%);fill-opacity:1;" d="M 29.136719 35.359375 C 28.96875 35.804688 28.96875 35.867188 29.199219 35.867188 C 29.304688 35.867188 29.429688 35.675781 29.492188 35.445312 C 29.621094 34.9375 29.324219 34.875 29.136719 35.359375 Z M 29.136719 35.359375 "/>
<path style=" stroke:none;fill-rule:nonzero;fill:rgb(0%,0%,0%);fill-opacity:1;" d="M 36.996094 35.550781 C 36.703125 35.71875 35.96875 35.84375 35.378906 35.867188 C 34.75 35.867188 34.265625 35.972656 34.265625 36.078125 C 34.265625 36.203125 34.621094 36.289062 35.0625 36.265625 C 35.945312 36.226562 37.839844 35.632812 37.839844 35.402344 C 37.839844 35.167969 37.585938 35.210938 36.996094 35.550781 Z M 36.996094 35.550781 "/>
<path style=" stroke:none;fill-rule:nonzero;fill:rgb(0%,0%,0%);fill-opacity:1;" d="M 40.382812 35.570312 C 40.382812 35.804688 40.445312 35.867188 40.507812 35.699219 C 40.570312 35.550781 40.550781 35.359375 40.488281 35.296875 C 40.425781 35.210938 40.359375 35.339844 40.382812 35.570312 Z M 40.382812 35.570312 "/>
<path style=" stroke:none;fill-rule:nonzero;fill:rgb(0%,0%,0%);fill-opacity:1;" d="M 23.125 35.761719 C 22.765625 35.972656 22.703125 36.054688 22.933594 36.078125 C 23.125 36.078125 23.398438 35.929688 23.542969 35.761719 C 23.859375 35.382812 23.796875 35.382812 23.125 35.761719 Z M 23.125 35.761719 "/>
<path style=" stroke:none;fill-rule:nonzero;fill:rgb(0%,0%,0%);fill-opacity:1;" d="M 33.003906 35.867188 C 33.003906 35.972656 33.109375 36.078125 33.234375 36.078125 C 33.339844 36.078125 33.382812 35.972656 33.320312 35.867188 C 33.257812 35.738281 33.152344 35.65625 33.085938 35.65625 C 33.046875 35.65625 33.003906 35.738281 33.003906 35.867188 Z M 33.003906 35.867188 "/>
<path style=" stroke:none;fill-rule:nonzero;fill:rgb(0%,0%,0%);fill-opacity:1;" d="M 23.648438 36.289062 C 23.585938 36.394531 23.671875 36.5 23.839844 36.5 C 24.027344 36.5 24.175781 36.394531 24.175781 36.289062 C 24.175781 36.160156 24.089844 36.078125 23.984375 36.078125 C 23.859375 36.078125 23.710938 36.160156 23.648438 36.289062 Z M 23.648438 36.289062 "/>
<path style=" stroke:none;fill-rule:nonzero;fill:rgb(0%,0%,0%);fill-opacity:1;" d="M 22.175781 36.5 C 22.113281 36.605469 22.136719 36.710938 22.261719 36.710938 C 22.367188 36.710938 22.535156 36.605469 22.597656 36.5 C 22.660156 36.371094 22.640625 36.289062 22.515625 36.289062 C 22.410156 36.289062 22.242188 36.371094 22.175781 36.5 Z M 22.175781 36.5 "/>
<path style=" stroke:none;fill-rule:nonzero;fill:rgb(0%,0%,0%);fill-opacity:1;" d="M 20.832031 37.46875 C 20.683594 37.636719 20.601562 37.828125 20.644531 37.890625 C 20.707031 37.933594 20.917969 37.785156 21.125 37.554688 C 21.335938 37.320312 21.421875 37.132812 21.316406 37.132812 C 21.210938 37.152344 21 37.300781 20.832031 37.46875 Z M 20.832031 37.46875 "/>
<path style=" stroke:none;fill-rule:nonzero;fill:rgb(0%,0%,0%);fill-opacity:1;" d="M 38.21875 37.28125 C 38.363281 37.34375 38.554688 37.320312 38.617188 37.257812 C 38.699219 37.195312 38.574219 37.132812 38.34375 37.152344 C 38.113281 37.152344 38.046875 37.214844 38.21875 37.28125 Z M 38.21875 37.28125 "/>
<path style=" stroke:none;fill-rule:nonzero;fill:rgb(0%,0%,0%);fill-opacity:1;" d="M 36.535156 37.703125 C 36.683594 37.765625 36.871094 37.742188 36.933594 37.679688 C 37.019531 37.617188 36.894531 37.554688 36.660156 37.574219 C 36.429688 37.574219 36.367188 37.636719 36.535156 37.703125 Z M 36.535156 37.703125 "/>
<path style=" stroke:none;fill-rule:nonzero;fill:rgb(0%,0%,0%);fill-opacity:1;" d="M 19.761719 38.417969 C 19.761719 38.523438 19.867188 38.566406 19.96875 38.503906 C 20.097656 38.441406 20.179688 38.335938 20.179688 38.269531 C 20.179688 38.230469 20.097656 38.1875 19.96875 38.1875 C 19.867188 38.1875 19.761719 38.292969 19.761719 38.417969 Z M 19.761719 38.417969 "/>
<path style=" stroke:none;fill-rule:nonzero;fill:rgb(0%,0%,0%);fill-opacity:1;" d="M 18.710938 39.136719 C 18.5625 39.324219 18.5 39.515625 18.5625 39.578125 C 18.773438 39.8125 19.339844 39.472656 19.339844 39.136719 C 19.339844 38.734375 19.046875 38.734375 18.710938 39.136719 Z M 18.710938 39.136719 "/>
<path style=" stroke:none;fill-rule:nonzero;fill:rgb(0%,0%,0%);fill-opacity:1;" d="M 42.273438 40.382812 C 41.683594 40.71875 41.515625 41.289062 42 41.289062 C 42.421875 41.289062 43.09375 40.71875 43.09375 40.359375 C 43.09375 40.023438 42.925781 40.023438 42.273438 40.382812 Z M 42.273438 40.382812 "/>
<path style=" stroke:none;fill-rule:nonzero;fill:rgb(0%,0%,0%);fill-opacity:1;" d="M 19.066406 41.078125 C 18.980469 41.140625 18.917969 41.308594 18.917969 41.4375 C 18.917969 41.5625 19.023438 41.542969 19.171875 41.394531 C 19.296875 41.265625 19.359375 41.097656 19.320312 41.035156 C 19.253906 40.972656 19.128906 40.992188 19.066406 41.078125 Z M 19.066406 41.078125 "/>
<path style=" stroke:none;fill-rule:nonzero;fill:rgb(0%,0%,0%);fill-opacity:1;" d="M 40.570312 42.765625 C 40.59375 43.164062 40.90625 43.417969 41.179688 43.269531 C 41.328125 43.164062 41.390625 42.976562 41.328125 42.847656 C 41.160156 42.597656 40.570312 42.53125 40.570312 42.765625 Z M 40.570312 42.765625 "/>
<path style=" stroke:none;fill-rule:nonzero;fill:rgb(0%,0%,0%);fill-opacity:1;" d="M 40.359375 43.882812 C 40.359375 43.988281 40.464844 44.09375 40.59375 44.09375 C 40.699219 44.09375 40.738281 43.988281 40.675781 43.882812 C 40.613281 43.757812 40.507812 43.671875 40.445312 43.671875 C 40.402344 43.671875 40.359375 43.757812 40.359375 43.882812 Z M 40.359375 43.882812 "/>
<path style=" stroke:none;fill-rule:nonzero;fill:rgb(0%,0%,0%);fill-opacity:1;" d="M 15.828125 44.410156 C 15.765625 44.601562 15.765625 44.789062 15.808594 44.855469 C 15.871094 44.917969 15.976562 44.769531 16.039062 44.515625 C 16.164062 44.03125 16.019531 43.945312 15.828125 44.410156 Z M 15.828125 44.410156 "/>
<path style=" stroke:none;fill-rule:nonzero;fill:rgb(0%,0%,0%);fill-opacity:1;" d="M 14.191406 45.148438 C 14.105469 45.277344 14.253906 45.359375 14.484375 45.359375 C 15.007812 45.359375 15.050781 45.234375 14.609375 45.085938 C 14.441406 45 14.253906 45.042969 14.191406 45.148438 Z M 14.191406 45.148438 "/>
<path style=" stroke:none;fill-rule:nonzero;fill:rgb(0%,0%,0%);fill-opacity:1;" d="M 42.609375 47.195312 C 42.527344 47.257812 42.464844 47.425781 42.464844 47.554688 C 42.464844 47.679688 42.570312 47.660156 42.714844 47.511719 C 42.839844 47.386719 42.90625 47.214844 42.863281 47.152344 C 42.800781 47.089844 42.671875 47.109375 42.609375 47.195312 Z M 42.609375 47.195312 "/>
<path style=" stroke:none;fill-rule:nonzero;fill:rgb(0%,0%,0%);fill-opacity:1;" d="M 43.21875 47.40625 C 42.988281 47.636719 43.09375 47.890625 43.410156 47.890625 C 43.578125 47.890625 43.722656 47.808594 43.722656 47.703125 C 43.722656 47.425781 43.386719 47.238281 43.21875 47.40625 Z M 43.21875 47.40625 "/>
<path style=" stroke:none;fill-rule:nonzero;fill:rgb(0%,0%,0%);fill-opacity:1;" d="M 56.128906 48.988281 C 56.128906 49.433594 56.863281 50.042969 58.921875 51.265625 C 60.816406 52.40625 61.234375 52.890625 60.121094 52.660156 C 59.449219 52.535156 59.324219 52.703125 59.742188 53.125 C 59.953125 53.335938 59.953125 53.441406 59.699219 53.589844 C 59.21875 53.90625 59.070312 53.839844 59.070312 53.3125 C 59.070312 52.679688 58.355469 52.027344 57.324219 51.6875 C 56.882812 51.5625 56.085938 50.992188 55.539062 50.445312 C 54.234375 49.136719 53.582031 48.925781 51.796875 49.179688 C 49.714844 49.472656 49.402344 49.578125 48.308594 50.277344 L 47.296875 50.910156 L 47.296875 52.890625 C 47.296875 54.621094 47.339844 54.855469 47.675781 54.855469 C 47.867188 54.855469 48.160156 54.769531 48.328125 54.664062 C 48.496094 54.558594 48.894531 54.558594 49.273438 54.664062 C 49.632812 54.769531 51.0625 54.917969 52.449219 54.980469 C 54.804688 55.085938 54.992188 55.128906 55.453125 55.632812 L 55.9375 56.183594 L 55.414062 56.730469 C 55.117188 57.046875 54.867188 57.363281 54.867188 57.429688 C 54.867188 57.617188 56.738281 58.230469 57.304688 58.230469 C 57.558594 58.230469 58.144531 58.546875 58.609375 58.925781 C 59.070312 59.328125 59.972656 59.894531 60.648438 60.210938 C 61.90625 60.847656 62.054688 60.824219 62.519531 59.875 C 62.855469 59.199219 64.117188 59.09375 64.957031 59.707031 C 65.292969 59.9375 66.429688 60.53125 67.480469 60.992188 C 69.351562 61.816406 69.390625 61.835938 69.980469 61.480469 C 70.570312 61.140625 70.632812 61.140625 71.558594 61.5625 C 72.734375 62.132812 72.734375 62.132812 72.734375 61.605469 C 72.734375 61.375 72.921875 60.824219 73.175781 60.359375 C 73.742188 59.242188 73.660156 58.355469 72.945312 58.273438 C 72.648438 58.230469 71.894531 58.039062 71.261719 57.808594 C 70.632812 57.597656 69.855469 57.363281 69.558594 57.300781 C 69.265625 57.238281 68.738281 56.921875 68.382812 56.605469 C 68.003906 56.269531 67.5625 55.886719 67.375 55.71875 C 67.164062 55.550781 67.078125 55.296875 67.164062 55.085938 C 67.246094 54.894531 67.351562 54.644531 67.414062 54.496094 C 67.5625 54.136719 66.300781 53.546875 65.542969 53.628906 C 64.726562 53.714844 64.261719 54.347656 64.808594 54.664062 C 65 54.789062 65.167969 55.105469 65.167969 55.382812 C 65.167969 55.824219 65.0625 55.910156 64.535156 55.910156 C 63.84375 55.910156 63.128906 55.085938 63.359375 54.539062 C 63.503906 54.15625 62.875 52.996094 62.433594 52.851562 C 62.265625 52.785156 61.972656 52.429688 61.78125 52.070312 C 61.550781 51.5625 61.171875 51.265625 60.351562 50.949219 C 59.742188 50.699219 59.050781 50.253906 58.796875 49.9375 C 58.542969 49.644531 58 49.304688 57.597656 49.199219 C 57.199219 49.074219 56.695312 48.925781 56.503906 48.839844 C 56.253906 48.734375 56.128906 48.777344 56.128906 48.988281 Z M 53.75 50.71875 C 53.582031 51.140625 53.375 51.140625 52.847656 50.738281 C 52.449219 50.421875 52.449219 50.421875 52.867188 50.105469 C 53.226562 49.832031 53.308594 49.832031 53.5625 50.085938 C 53.730469 50.253906 53.816406 50.550781 53.75 50.71875 Z M 53.394531 51.648438 C 53.394531 52.28125 52.890625 52.785156 52.34375 52.703125 C 51.269531 52.554688 51.691406 51.265625 52.785156 51.265625 C 53.226562 51.265625 53.394531 51.371094 53.394531 51.648438 Z M 58.1875 54.09375 C 58.3125 54.707031 57.976562 54.855469 57.03125 54.578125 C 55.644531 54.222656 55.832031 53.523438 57.285156 53.628906 C 57.894531 53.671875 58.144531 53.800781 58.1875 54.09375 Z M 65.902344 57.386719 C 65.964844 57.492188 65.882812 57.597656 65.691406 57.597656 C 65.503906 57.597656 65.417969 57.492188 65.480469 57.386719 C 65.542969 57.257812 65.648438 57.175781 65.691406 57.175781 C 65.734375 57.175781 65.839844 57.257812 65.902344 57.386719 Z M 72.3125 58.839844 C 72.3125 59.136719 71.933594 59.328125 71.683594 59.179688 C 71.558594 59.09375 71.515625 58.945312 71.578125 58.839844 C 71.746094 58.589844 72.3125 58.589844 72.3125 58.839844 Z M 72.3125 58.839844 "/>
<path style=" stroke:none;fill-rule:nonzero;fill:rgb(0%,0%,0%);fill-opacity:1;" d="M 10.722656 50.234375 C 10.722656 50.339844 10.824219 50.382812 10.929688 50.316406 C 11.058594 50.253906 11.140625 50.148438 11.140625 50.085938 C 11.140625 50.042969 11.058594 50 10.929688 50 C 10.824219 50 10.722656 50.105469 10.722656 50.234375 Z M 10.722656 50.234375 "/>
<path style=" stroke:none;fill-rule:nonzero;fill:rgb(0%,0%,0%);fill-opacity:1;" d="M 38.070312 50.339844 C 38.070312 50.570312 38.132812 50.632812 38.195312 50.464844 C 38.257812 50.316406 38.238281 50.128906 38.175781 50.066406 C 38.113281 49.980469 38.046875 50.105469 38.070312 50.339844 Z M 38.070312 50.339844 "/>
<path style=" stroke:none;fill-rule:nonzero;fill:rgb(0%,0%,0%);fill-opacity:1;" d="M 68.59375 51.015625 C 68.234375 51.183594 67.816406 51.542969 67.6875 51.792969 C 67.480469 52.21875 67.5 52.34375 67.898438 52.746094 C 68.320312 53.167969 68.320312 53.230469 68.027344 53.566406 C 67.835938 53.777344 67.6875 54.011719 67.6875 54.074219 C 67.6875 54.304688 68.488281 54.242188 68.636719 54.011719 C 68.699219 53.882812 69.433594 53.800781 70.234375 53.800781 C 71.558594 53.800781 71.851562 53.882812 73.28125 54.664062 C 74.414062 55.296875 74.984375 55.488281 75.363281 55.402344 C 76.078125 55.210938 76.011719 54.980469 75.109375 54.179688 C 73.804688 52.996094 73.574219 52.679688 73.574219 52.089844 C 73.574219 51.792969 73.449219 51.414062 73.28125 51.289062 C 72.921875 50.992188 71.832031 51.097656 71.367188 51.476562 C 71.09375 51.710938 70.96875 51.6875 70.570312 51.332031 C 69.917969 50.71875 69.371094 50.632812 68.59375 51.015625 Z M 68.59375 51.015625 "/>
<path style=" stroke:none;fill-rule:nonzero;fill:rgb(0%,0%,0%);fill-opacity:1;" d="M 37.230469 51.394531 C 37.230469 51.625 37.292969 51.6875 37.355469 51.519531 C 37.417969 51.371094 37.398438 51.183594 37.335938 51.121094 C 37.269531 51.035156 37.207031 51.160156 37.230469 51.394531 Z M 37.230469 51.394531 "/>
<path style=" stroke:none;fill-rule:nonzero;fill:rgb(0%,0%,0%);fill-opacity:1;" d="M 37.355469 52.046875 C 37.269531 52.113281 37.207031 52.324219 37.207031 52.492188 C 37.207031 52.746094 37.269531 52.746094 37.523438 52.535156 C 37.691406 52.386719 37.839844 52.195312 37.839844 52.089844 C 37.839844 51.859375 37.542969 51.835938 37.355469 52.046875 Z M 37.355469 52.046875 "/>
<path style=" stroke:none;fill-rule:nonzero;fill:rgb(0%,0%,0%);fill-opacity:1;" d="M 8.765625 52.996094 C 8.113281 53.839844 8.050781 54.050781 8.515625 53.882812 C 8.683594 53.800781 8.828125 53.628906 8.828125 53.460938 C 8.828125 53.3125 8.976562 53.101562 9.164062 52.996094 C 9.355469 52.890625 9.480469 52.679688 9.417969 52.535156 C 9.355469 52.34375 9.125 52.511719 8.765625 52.996094 Z M 8.765625 52.996094 "/>
<path style=" stroke:none;fill-rule:nonzero;fill:rgb(0%,0%,0%);fill-opacity:1;" d="M 118.792969 54.472656 C 118.8125 55.992188 118.898438 55.910156 119.042969 54.261719 C 119.085938 53.671875 119.042969 53.167969 118.960938 53.167969 C 118.855469 53.167969 118.769531 53.757812 118.792969 54.472656 Z M 118.792969 54.472656 "/>
<path style=" stroke:none;fill-rule:nonzero;fill:rgb(0%,0%,0%);fill-opacity:1;" d="M 38.890625 53.757812 C 38.890625 53.863281 39.101562 53.925781 39.375 53.925781 C 39.625 53.90625 39.816406 54.011719 39.792969 54.15625 C 39.773438 54.285156 39.898438 54.453125 40.066406 54.515625 C 40.320312 54.621094 40.382812 54.558594 40.277344 54.304688 C 40.214844 54.136719 40.152344 53.882812 40.152344 53.777344 C 40.152344 53.671875 39.878906 53.589844 39.519531 53.589844 C 39.183594 53.589844 38.890625 53.671875 38.890625 53.757812 Z M 38.890625 53.757812 "/>
<path style=" stroke:none;fill-rule:nonzero;fill:rgb(0%,0%,0%);fill-opacity:1;" d="M 78.261719 54.390625 C 78.324219 54.707031 78.765625 55.613281 79.230469 56.394531 C 79.796875 57.300781 80.089844 58.0625 80.089844 58.503906 C 80.089844 59.222656 80.953125 60.613281 81.542969 60.867188 C 81.753906 60.953125 81.792969 60.78125 81.6875 60.085938 C 81.625 59.578125 81.519531 58.90625 81.480469 58.589844 C 81.4375 58.25 81.121094 57.640625 80.785156 57.21875 C 79.796875 55.992188 79.609375 55.507812 79.839844 54.980469 C 80.15625 54.261719 79.777344 53.800781 78.894531 53.800781 C 78.179688 53.800781 78.15625 53.839844 78.261719 54.390625 Z M 78.261719 54.390625 "/>
<path style=" stroke:none;fill-rule:nonzero;fill:rgb(0%,0%,0%);fill-opacity:1;" d="M 7.800781 54.347656 C 7.800781 54.578125 7.863281 54.644531 7.925781 54.472656 C 7.988281 54.328125 7.96875 54.136719 7.902344 54.074219 C 7.839844 53.988281 7.777344 54.117188 7.800781 54.347656 Z M 7.800781 54.347656 "/>
<path style=" stroke:none;fill-rule:nonzero;fill:rgb(0%,0%,0%);fill-opacity:1;" d="M 8.933594 54.644531 C 8.996094 54.75 9.101562 54.855469 9.164062 54.855469 C 9.207031 54.855469 9.25 54.75 9.25 54.644531 C 9.25 54.515625 9.144531 54.433594 9.019531 54.433594 C 8.914062 54.433594 8.871094 54.515625 8.933594 54.644531 Z M 8.933594 54.644531 "/>
<path style=" stroke:none;fill-rule:nonzero;fill:rgb(0%,0%,0%);fill-opacity:1;" d="M 7.378906 55.402344 C 7.378906 55.632812 7.441406 55.699219 7.503906 55.527344 C 7.566406 55.382812 7.546875 55.191406 7.484375 55.128906 C 7.421875 55.042969 7.359375 55.171875 7.378906 55.402344 Z M 7.378906 55.402344 "/>
<path style=" stroke:none;fill-rule:nonzero;fill:rgb(0%,0%,0%);fill-opacity:1;" d="M 40.171875 55.359375 C 39.835938 55.761719 39.941406 55.972656 40.339844 55.71875 C 40.488281 55.613281 40.59375 55.421875 40.53125 55.277344 C 40.464844 55.085938 40.359375 55.128906 40.171875 55.359375 Z M 40.171875 55.359375 "/>
<path style=" stroke:none;fill-rule:nonzero;fill:rgb(0%,0%,0%);fill-opacity:1;" d="M 38.257812 55.992188 C 38.257812 56.203125 38.847656 56.269531 39.121094 56.097656 C 39.332031 55.972656 39.269531 55.910156 38.847656 55.910156 C 38.511719 55.910156 38.257812 55.949219 38.257812 55.992188 Z M 38.257812 55.992188 "/>
<path style=" stroke:none;fill-rule:nonzero;fill:rgb(0%,0%,0%);fill-opacity:1;" d="M 6.9375 56.816406 C 6.9375 57.089844 6.832031 57.40625 6.707031 57.535156 C 6.578125 57.660156 6.539062 57.871094 6.621094 57.996094 C 6.8125 58.335938 7.148438 58.0625 7 57.703125 C 6.9375 57.535156 6.980469 57.386719 7.105469 57.386719 C 7.210938 57.386719 7.359375 57.152344 7.398438 56.859375 C 7.484375 56.5 7.421875 56.332031 7.230469 56.332031 C 7.0625 56.332031 6.9375 56.542969 6.9375 56.816406 Z M 6.9375 56.816406 "/>
<path style=" stroke:none;fill-rule:nonzero;fill:rgb(0%,0%,0%);fill-opacity:1;" d="M 37.144531 56.753906 C 36.957031 56.984375 36.871094 57.175781 36.976562 57.175781 C 37.207031 57.175781 37.710938 56.5625 37.585938 56.4375 C 37.542969 56.394531 37.335938 56.519531 37.144531 56.753906 Z M 37.144531 56.753906 "/>
<path style=" stroke:none;fill-rule:nonzero;fill:rgb(0%,0%,0%);fill-opacity:1;" d="M 118.496094 56.480469 C 118.414062 56.542969 118.371094 56.941406 118.371094 57.363281 L 118.394531 58.125 L 118.5625 57.28125 C 118.730469 56.394531 118.730469 56.246094 118.496094 56.480469 Z M 118.496094 56.480469 "/>
<path style=" stroke:none;fill-rule:nonzero;fill:rgb(0%,0%,0%);fill-opacity:1;" d="M 35.632812 58.039062 C 35.398438 58.398438 35.652344 58.484375 35.945312 58.125 C 36.113281 57.933594 36.113281 57.808594 35.988281 57.808594 C 35.863281 57.808594 35.695312 57.914062 35.632812 58.039062 Z M 35.632812 58.039062 "/>
<path style=" stroke:none;fill-rule:nonzero;fill:rgb(0%,0%,0%);fill-opacity:1;" d="M 6.222656 58.417969 C 6.136719 58.566406 6.117188 58.734375 6.179688 58.800781 C 6.371094 58.988281 6.578125 58.714844 6.472656 58.417969 C 6.390625 58.1875 6.347656 58.1875 6.222656 58.417969 Z M 6.222656 58.417969 "/>
<path style=" stroke:none;fill-rule:nonzero;fill:rgb(0%,0%,0%);fill-opacity:1;" d="M 118.015625 58.734375 C 117.953125 58.90625 117.929688 59.261719 117.972656 59.539062 C 118.035156 59.894531 118.078125 59.8125 118.160156 59.222656 C 118.265625 58.417969 118.203125 58.230469 118.015625 58.734375 Z M 118.015625 58.734375 "/>
<path style=" stroke:none;fill-rule:nonzero;fill:rgb(0%,0%,0%);fill-opacity:1;" d="M 6.726562 59.410156 C 6.726562 59.578125 6.832031 59.664062 6.9375 59.601562 C 7.0625 59.539062 7.148438 59.390625 7.148438 59.261719 C 7.148438 59.15625 7.0625 59.074219 6.9375 59.074219 C 6.832031 59.074219 6.726562 59.222656 6.726562 59.410156 Z M 6.726562 59.410156 "/>
<path style=" stroke:none;fill-rule:nonzero;fill:rgb(0%,0%,0%);fill-opacity:1;" d="M 5.589844 59.707031 C 5.128906 61.015625 4.667969 64.074219 4.878906 64.390625 C 4.980469 64.558594 5.046875 64.390625 5.046875 63.96875 C 5.046875 63.441406 5.148438 63.230469 5.464844 63.144531 C 5.929688 63.019531 6.054688 62.089844 5.675781 61.375 C 5.507812 61.097656 5.527344 60.847656 5.675781 60.53125 C 5.800781 60.296875 5.886719 59.894531 5.84375 59.644531 C 5.78125 59.199219 5.761719 59.199219 5.589844 59.707031 Z M 5.589844 59.707031 "/>
<path style=" stroke:none;fill-rule:nonzero;fill:rgb(0%,0%,0%);fill-opacity:1;" d="M 117.550781 60.867188 C 117.550781 61.203125 117.59375 61.332031 117.65625 61.121094 C 117.699219 60.929688 117.699219 60.636719 117.65625 60.488281 C 117.59375 60.359375 117.550781 60.507812 117.550781 60.867188 Z M 117.550781 60.867188 "/>
<path style=" stroke:none;fill-rule:nonzero;fill:rgb(0%,0%,0%);fill-opacity:1;" d="M 117.132812 62.34375 C 117.132812 62.679688 117.171875 62.808594 117.238281 62.597656 C 117.277344 62.40625 117.277344 62.113281 117.238281 61.964844 C 117.171875 61.835938 117.132812 61.984375 117.132812 62.34375 Z M 117.132812 62.34375 "/>
<path style=" stroke:none;fill-rule:nonzero;fill:rgb(0%,0%,0%);fill-opacity:1;" d="M 28.90625 62.449219 C 28.839844 62.554688 28.882812 62.660156 28.988281 62.660156 C 29.113281 62.660156 29.21875 62.554688 29.21875 62.449219 C 29.21875 62.324219 29.179688 62.238281 29.136719 62.238281 C 29.074219 62.238281 28.96875 62.324219 28.90625 62.449219 Z M 28.90625 62.449219 "/>
<path style=" stroke:none;fill-rule:nonzero;fill:rgb(0%,0%,0%);fill-opacity:1;" d="M 116.710938 63.609375 C 116.710938 63.945312 116.753906 64.074219 116.816406 63.863281 C 116.859375 63.671875 116.859375 63.378906 116.816406 63.230469 C 116.753906 63.101562 116.710938 63.25 116.710938 63.609375 Z M 116.710938 63.609375 "/>
<path style=" stroke:none;fill-rule:nonzero;fill:rgb(0%,0%,0%);fill-opacity:1;" d="M 5.527344 64.199219 C 5.382812 64.515625 5.253906 64.9375 5.253906 65.148438 C 5.253906 65.464844 5.277344 65.464844 5.589844 65.148438 C 5.78125 64.960938 5.886719 64.582031 5.84375 64.222656 L 5.78125 63.609375 Z M 5.527344 64.199219 "/>
<path style=" stroke:none;fill-rule:nonzero;fill:rgb(0%,0%,0%);fill-opacity:1;" d="M 27.160156 64.050781 C 27.011719 64.222656 26.992188 64.347656 27.097656 64.347656 C 27.308594 64.347656 27.621094 63.945312 27.515625 63.820312 C 27.476562 63.800781 27.308594 63.882812 27.160156 64.050781 Z M 27.160156 64.050781 "/>
<path style=" stroke:none;fill-rule:nonzero;fill:rgb(0%,0%,0%);fill-opacity:1;" d="M 26.507812 64.476562 C 26.507812 64.707031 26.570312 64.769531 26.632812 64.601562 C 26.695312 64.453125 26.675781 64.261719 26.613281 64.199219 C 26.550781 64.117188 26.488281 64.242188 26.507812 64.476562 Z M 26.507812 64.476562 "/>
<path style=" stroke:none;fill-rule:nonzero;fill:rgb(0%,0%,0%);fill-opacity:1;" d="M 116.289062 64.664062 C 116.289062 65.003906 116.332031 65.128906 116.394531 64.917969 C 116.4375 64.726562 116.4375 64.433594 116.394531 64.285156 C 116.332031 64.15625 116.289062 64.304688 116.289062 64.664062 Z M 116.289062 64.664062 "/>
<path style=" stroke:none;fill-rule:nonzero;fill:rgb(0%,0%,0%);fill-opacity:1;" d="M 4.855469 65.53125 C 4.855469 65.761719 4.917969 65.824219 4.980469 65.65625 C 5.046875 65.507812 5.023438 65.320312 4.960938 65.253906 C 4.898438 65.171875 4.835938 65.296875 4.855469 65.53125 Z M 4.855469 65.53125 "/>
<path style=" stroke:none;fill-rule:nonzero;fill:rgb(0%,0%,0%);fill-opacity:1;" d="M 4.414062 66.5 C 4.414062 67.386719 4.5 67.703125 4.75 67.808594 C 4.960938 67.890625 5.023438 68.082031 4.941406 68.355469 C 4.792969 68.820312 5.046875 68.90625 5.421875 68.523438 C 5.589844 68.355469 5.738281 68.355469 5.992188 68.566406 C 6.222656 68.757812 6.304688 68.777344 6.304688 68.566406 C 6.304688 68.441406 6.03125 68.207031 5.675781 68.082031 C 4.898438 67.785156 4.835938 67.429688 5.570312 67.574219 C 5.929688 67.640625 6.074219 67.574219 6.03125 67.429688 C 5.992188 67.300781 5.738281 67.21875 5.488281 67.238281 C 5.128906 67.28125 5.046875 67.175781 5.046875 66.710938 C 5.046875 66.394531 4.898438 65.953125 4.730469 65.742188 C 4.433594 65.359375 4.414062 65.425781 4.414062 66.5 Z M 4.414062 66.5 "/>
<path style=" stroke:none;fill-rule:nonzero;fill:rgb(0%,0%,0%);fill-opacity:1;" d="M 115.871094 65.824219 C 115.871094 66.121094 115.914062 66.226562 115.976562 66.078125 C 116.015625 65.953125 116.015625 65.699219 115.976562 65.550781 C 115.914062 65.425781 115.871094 65.53125 115.871094 65.824219 Z M 115.871094 65.824219 "/>
<path style=" stroke:none;fill-rule:nonzero;fill:rgb(0%,0%,0%);fill-opacity:1;" d="M 6.054688 66.605469 C 6.179688 66.648438 6.433594 66.648438 6.578125 66.605469 C 6.707031 66.542969 6.601562 66.5 6.304688 66.5 C 6.011719 66.5 5.90625 66.542969 6.054688 66.605469 Z M 6.054688 66.605469 "/>
<path style=" stroke:none;fill-rule:nonzero;fill:rgb(0%,0%,0%);fill-opacity:1;" d="M 115.429688 66.796875 C 115.429688 67.027344 115.492188 67.089844 115.554688 66.921875 C 115.617188 66.773438 115.597656 66.585938 115.535156 66.519531 C 115.472656 66.4375 115.40625 66.5625 115.429688 66.796875 Z M 115.429688 66.796875 "/>
<path style=" stroke:none;fill-rule:nonzero;fill:rgb(0%,0%,0%);fill-opacity:1;" d="M 7.148438 67.195312 C 7.148438 67.363281 7.0625 67.511719 6.9375 67.511719 C 6.832031 67.511719 6.726562 67.660156 6.726562 67.828125 C 6.726562 68.3125 7.0625 68.207031 7.316406 67.617188 C 7.628906 66.941406 7.628906 66.878906 7.359375 66.878906 C 7.253906 66.878906 7.148438 67.027344 7.148438 67.195312 Z M 7.148438 67.195312 "/>
<path style=" stroke:none;fill-rule:nonzero;fill:rgb(0%,0%,0%);fill-opacity:1;" d="M 26.339844 68.082031 C 26.214844 68.523438 26.128906 68.90625 26.171875 68.949219 C 26.320312 69.117188 26.71875 68.101562 26.65625 67.703125 C 26.613281 67.386719 26.527344 67.492188 26.339844 68.082031 Z M 26.339844 68.082031 "/>
<path style=" stroke:none;fill-rule:nonzero;fill:rgb(0%,0%,0%);fill-opacity:1;" d="M 114.796875 67.933594 C 114.652344 68.292969 114.589844 68.652344 114.652344 68.714844 C 114.714844 68.800781 114.777344 68.695312 114.777344 68.503906 C 114.777344 68.335938 114.882812 68.144531 115.007812 68.101562 C 115.132812 68.0625 115.21875 67.851562 115.175781 67.660156 C 115.113281 67.386719 115.03125 67.449219 114.796875 67.933594 Z M 114.796875 67.933594 "/>
<path style=" stroke:none;fill-rule:nonzero;fill:rgb(0%,0%,0%);fill-opacity:1;" d="M 6.515625 68.863281 C 6.515625 69.136719 7.105469 69.621094 7.441406 69.621094 C 7.628906 69.621094 7.777344 69.515625 7.777344 69.410156 C 7.777344 69.285156 7.609375 69.199219 7.398438 69.199219 C 7.1875 69.199219 6.917969 69.09375 6.769531 68.949219 C 6.621094 68.800781 6.515625 68.757812 6.515625 68.863281 Z M 6.515625 68.863281 "/>
<path style=" stroke:none;fill-rule:nonzero;fill:rgb(0%,0%,0%);fill-opacity:1;" d="M 114.167969 69.136719 C 114.125 69.515625 112.527344 72.027344 110.929688 74.222656 C 105.988281 80.992188 98.253906 86.351562 90.160156 88.609375 C 89.300781 88.84375 88.941406 88.988281 89.339844 88.949219 C 90.433594 88.820312 93 88.105469 94.910156 87.386719 C 97.183594 86.542969 97.390625 86.4375 99.304688 85.550781 C 101.765625 84.410156 101.828125 84.410156 103.132812 86.289062 C 106.347656 90.867188 106.851562 91.628906 107.0625 92.261719 C 107.292969 92.894531 108.09375 94.136719 112.484375 100.574219 C 113.410156 101.945312 115.386719 104.855469 116.835938 107.070312 C 118.308594 109.265625 119.90625 111.460938 120.367188 111.921875 C 120.851562 112.386719 122.617188 114.835938 124.320312 117.34375 C 126.925781 121.25 127.390625 122.050781 127.390625 122.726562 C 127.390625 123.230469 127.578125 123.824219 127.894531 124.285156 C 128.167969 124.6875 128.546875 125.382812 128.714844 125.785156 C 129.554688 127.808594 134.03125 128.90625 135.863281 127.558594 C 136.578125 127.03125 136.578125 126.820312 135.863281 126.964844 C 135.523438 127.03125 135.230469 126.945312 135.082031 126.753906 C 134.957031 126.585938 134.640625 126.332031 134.390625 126.183594 C 134.117188 126.058594 133.90625 125.804688 133.90625 125.65625 C 133.90625 125.46875 133.550781 125.339844 132.835938 125.277344 C 131.40625 125.128906 131.109375 124.8125 131.847656 124.160156 C 132.5625 123.527344 132.519531 123.378906 130.878906 121.207031 C 127.683594 116.945312 127.265625 116.394531 126.527344 115.53125 C 125.769531 114.601562 124.65625 112.9375 124.65625 112.703125 C 124.65625 112.597656 125.203125 112.15625 125.875 111.710938 C 126.527344 111.269531 127.578125 110.550781 128.167969 110.085938 L 129.28125 109.242188 L 129.847656 109.917969 C 130.1875 110.300781 130.816406 111.121094 131.277344 111.710938 C 131.742188 112.324219 133.296875 114.328125 134.746094 116.164062 C 136.199219 118 137.480469 119.625 137.605469 119.792969 C 137.773438 120.046875 137.921875 120.003906 138.46875 119.539062 C 139.476562 118.695312 139.644531 118.800781 139.476562 120.195312 C 139.351562 121.355469 139.394531 121.460938 140.042969 122.324219 L 140.738281 123.230469 L 141.285156 122.578125 C 142.019531 121.710938 142.460938 119.878906 142.105469 119.179688 C 141.199219 117.449219 139.097656 115.046875 138.320312 114.878906 C 137.921875 114.792969 137.058594 113.949219 135.546875 112.175781 C 131.574219 107.492188 130.480469 106.121094 130.144531 105.382812 C 129.722656 104.476562 115.09375 87.175781 114.484375 86.878906 C 114.125 86.710938 109.25 81.078125 108.34375 79.769531 C 108.09375 79.433594 108.238281 79.136719 109.394531 77.40625 C 112.023438 73.441406 113.09375 71.753906 113.09375 71.542969 C 113.09375 71.414062 113.160156 71.308594 113.261719 71.308594 C 113.347656 71.308594 113.535156 70.992188 113.703125 70.613281 C 113.875 70.253906 114.105469 69.875 114.210938 69.8125 C 114.316406 69.726562 114.355469 69.496094 114.292969 69.285156 C 114.230469 69.054688 114.1875 68.988281 114.167969 69.136719 Z M 107.777344 81.585938 C 107.902344 81.921875 108.660156 82.914062 110.363281 85.023438 C 112.738281 87.914062 113.875 89.539062 113.789062 89.898438 C 113.640625 90.402344 111.980469 91.945312 111.289062 92.195312 C 110.992188 92.324219 110.46875 92.40625 110.132812 92.40625 C 109.480469 92.40625 109.5 92.429688 106.558594 88.292969 C 103.59375 84.136719 103.636719 84.199219 103.910156 83.96875 C 104.035156 83.84375 104.792969 83.273438 105.570312 82.703125 C 106.347656 82.132812 107.019531 81.5625 107.105469 81.4375 C 107.316406 81.121094 107.628906 81.183594 107.777344 81.585938 Z M 107.777344 81.585938 "/>
<path style=" stroke:none;fill-rule:nonzero;fill:rgb(0%,0%,0%);fill-opacity:1;" d="M 7.988281 69.390625 C 7.988281 69.515625 8.09375 69.664062 8.199219 69.726562 C 8.324219 69.792969 8.410156 69.707031 8.410156 69.539062 C 8.410156 69.347656 8.324219 69.199219 8.199219 69.199219 C 8.09375 69.199219 7.988281 69.285156 7.988281 69.390625 Z M 7.988281 69.390625 "/>
<path style=" stroke:none;fill-rule:nonzero;fill:rgb(0%,0%,0%);fill-opacity:1;" d="M 25.332031 69.410156 C 25.269531 69.515625 25.289062 69.621094 25.414062 69.621094 C 25.519531 69.621094 25.6875 69.515625 25.75 69.410156 C 25.8125 69.285156 25.792969 69.199219 25.667969 69.199219 C 25.5625 69.199219 25.394531 69.285156 25.332031 69.410156 Z M 25.332031 69.410156 "/>
<path style=" stroke:none;fill-rule:nonzero;fill:rgb(0%,0%,0%);fill-opacity:1;" d="M 3.992188 70.066406 C 3.992188 70.296875 4.097656 70.425781 4.203125 70.359375 C 4.332031 70.296875 4.414062 70.085938 4.414062 69.917969 C 4.414062 69.75 4.332031 69.621094 4.203125 69.621094 C 4.097656 69.621094 3.992188 69.8125 3.992188 70.066406 Z M 3.992188 70.066406 "/>
<path style=" stroke:none;fill-rule:nonzero;fill:rgb(0%,0%,0%);fill-opacity:1;" d="M 8.449219 70.253906 C 8.03125 70.929688 8.15625 71.226562 8.660156 70.71875 C 8.976562 70.425781 9.058594 70.191406 8.914062 70.042969 C 8.785156 69.917969 8.617188 69.980469 8.449219 70.253906 Z M 8.449219 70.253906 "/>
<path style=" stroke:none;fill-rule:nonzero;fill:rgb(0%,0%,0%);fill-opacity:1;" d="M 24.785156 70.507812 C 24.742188 70.886719 24.761719 71.542969 24.828125 71.941406 C 24.929688 72.511719 24.972656 72.34375 24.996094 71.246094 C 25.015625 69.75 24.910156 69.371094 24.785156 70.507812 Z M 24.785156 70.507812 "/>
<path style=" stroke:none;fill-rule:nonzero;fill:rgb(0%,0%,0%);fill-opacity:1;" d="M 5.992188 70.867188 C 5.863281 70.972656 5.527344 71.097656 5.191406 71.140625 C 4.226562 71.289062 4.035156 71.796875 4.246094 73.949219 C 4.351562 74.980469 4.539062 76.351562 4.667969 76.945312 C 4.855469 77.851562 4.960938 78.019531 5.191406 77.808594 C 5.421875 77.640625 5.589844 77.683594 6.011719 78.082031 C 6.410156 78.460938 6.789062 78.589844 7.484375 78.589844 C 7.988281 78.589844 8.410156 78.527344 8.410156 78.421875 C 8.410156 78.335938 8.324219 78.273438 8.199219 78.273438 C 7.882812 78.273438 7.292969 76.984375 7.503906 76.773438 C 7.800781 76.480469 7.566406 75.382812 7.125 74.980469 C 6.769531 74.644531 6.726562 74.644531 6.726562 74.960938 C 6.726562 75.171875 6.644531 75.320312 6.558594 75.320312 C 6.179688 75.320312 5.886719 74.769531 5.886719 74.09375 C 5.886719 73.695312 5.695312 73.105469 5.445312 72.746094 C 5.191406 72.40625 5.066406 72.070312 5.148438 71.984375 C 5.234375 71.902344 5.359375 71.964844 5.402344 72.089844 C 5.507812 72.386719 6.097656 72.46875 6.097656 72.195312 C 6.097656 72.113281 5.992188 71.921875 5.863281 71.796875 C 5.71875 71.648438 5.71875 71.519531 5.84375 71.4375 C 5.96875 71.375 6.242188 71.542969 6.472656 71.835938 C 6.707031 72.132812 7.019531 72.363281 7.167969 72.363281 C 7.378906 72.34375 7.359375 72.257812 7.105469 72.070312 C 6.894531 71.921875 6.726562 71.710938 6.726562 71.585938 C 6.726562 71.183594 6.203125 70.65625 5.992188 70.867188 Z M 6.222656 76.519531 C 6.011719 76.730469 5.824219 76.414062 6.011719 76.140625 C 6.136719 75.910156 6.179688 75.910156 6.265625 76.140625 C 6.304688 76.289062 6.285156 76.457031 6.222656 76.519531 Z M 7.148438 76.246094 C 7.148438 76.308594 7.0625 76.414062 6.9375 76.480469 C 6.832031 76.542969 6.726562 76.5 6.726562 76.394531 C 6.726562 76.269531 6.832031 76.164062 6.9375 76.164062 C 7.0625 76.164062 7.148438 76.203125 7.148438 76.246094 Z M 6.832031 77.21875 C 6.894531 77.449219 7.042969 77.640625 7.148438 77.640625 C 7.253906 77.640625 7.292969 77.789062 7.230469 77.957031 C 7.042969 78.421875 6.726562 78.335938 6.726562 77.851562 C 6.726562 77.492188 6.621094 77.449219 6.203125 77.554688 C 5.589844 77.703125 5.507812 77.492188 6.054688 77.089844 C 6.539062 76.710938 6.683594 76.730469 6.832031 77.21875 Z M 6.832031 77.21875 "/>
<path style=" stroke:none;fill-rule:nonzero;fill:rgb(0%,0%,0%);fill-opacity:1;" d="M 6.832031 70.910156 C 6.664062 71.164062 7.589844 71.375 7.820312 71.140625 C 7.945312 71.015625 7.820312 70.910156 7.460938 70.847656 C 7.167969 70.78125 6.875 70.804688 6.832031 70.910156 Z M 6.832031 70.910156 "/>
<path style=" stroke:none;fill-rule:nonzero;fill:rgb(0%,0%,0%);fill-opacity:1;" d="M 25.773438 73.039062 C 26.109375 73.316406 26.488281 73.589844 26.59375 73.671875 C 26.71875 73.777344 27.054688 74.03125 27.390625 74.285156 C 27.707031 74.515625 27.957031 74.855469 27.957031 75.023438 C 27.957031 75.191406 28.042969 75.320312 28.167969 75.320312 C 28.273438 75.320312 28.714844 75.636719 29.136719 76.035156 C 30.480469 77.300781 30.648438 77.40625 31.089844 77.28125 C 31.34375 77.21875 31.53125 77.261719 31.53125 77.386719 C 31.53125 77.511719 32.035156 77.851562 32.644531 78.167969 L 33.738281 78.714844 L 32.792969 78.652344 C 31.847656 78.589844 31.847656 78.589844 31.890625 79.265625 C 31.953125 79.855469 31.890625 79.898438 31.488281 79.792969 C 31.21875 79.726562 31.132812 79.644531 31.28125 79.582031 C 31.46875 79.515625 31.320312 79.285156 30.878906 78.882812 C 30.1875 78.273438 30.207031 78.210938 31.007812 78.25 L 31.425781 78.273438 L 31.007812 78.082031 C 30.777344 77.976562 30.523438 77.933594 30.4375 78 C 30.332031 78.039062 30.269531 78 30.269531 77.871094 C 30.269531 77.660156 30.039062 77.683594 29.28125 77.933594 C 28.652344 78.144531 28.671875 78.484375 29.28125 78.484375 C 29.957031 78.484375 30.480469 79.09375 30.269531 79.644531 C 30.125 79.960938 30.082031 79.980469 30.082031 79.726562 C 30.0625 79.515625 29.808594 79.328125 29.410156 79.242188 C 28.441406 79.054688 28.421875 79.074219 28.546875 79.664062 L 28.652344 80.214844 L 26.824219 80.128906 L 25.015625 80.066406 L 25.015625 80.636719 C 25.015625 80.953125 24.910156 81.457031 24.785156 81.796875 C 24.59375 82.324219 24.554688 82.34375 24.34375 82.007812 C 24.195312 81.710938 24.070312 81.667969 23.839844 81.878906 C 23.671875 82.007812 23.542969 82.261719 23.542969 82.40625 C 23.542969 82.617188 23.269531 82.703125 22.703125 82.703125 C 22.242188 82.703125 21.863281 82.789062 21.863281 82.914062 C 21.863281 83.144531 18.75 83.210938 18.203125 83 C 18.015625 82.933594 17.867188 82.660156 17.867188 82.40625 C 17.867188 81.4375 17.46875 81.246094 15.828125 81.417969 C 14.589844 81.523438 14.273438 81.5 14.191406 81.246094 C 14.085938 80.992188 14.019531 80.992188 13.726562 81.289062 C 13.433594 81.585938 13.433594 81.667969 13.664062 81.964844 C 13.894531 82.238281 13.894531 82.34375 13.683594 82.492188 C 13.476562 82.597656 13.476562 82.683594 13.664062 82.808594 C 13.789062 82.894531 14.019531 82.789062 14.191406 82.578125 C 14.335938 82.34375 14.546875 82.238281 14.632812 82.324219 C 14.714844 82.40625 14.652344 82.640625 14.503906 82.828125 C 14.253906 83.105469 14.273438 83.1875 14.527344 83.355469 C 14.695312 83.460938 14.925781 83.503906 15.03125 83.460938 C 15.242188 83.398438 15.242188 83.210938 15.074219 82.386719 C 15.03125 82.15625 15.03125 82.089844 15.074219 82.21875 C 15.136719 82.386719 15.535156 82.492188 16.019531 82.492188 C 16.773438 82.492188 16.839844 82.535156 16.585938 82.828125 C 16.417969 83.039062 16.269531 83.082031 16.230469 82.933594 C 16.125 82.597656 15.765625 82.640625 15.765625 83 C 15.765625 83.167969 15.617188 83.335938 15.449219 83.421875 C 14.988281 83.589844 15.050781 83.800781 15.890625 84.792969 C 16.4375 85.425781 16.734375 85.613281 16.878906 85.46875 C 17.257812 85.085938 17.488281 85.214844 17.320312 85.699219 C 17.195312 86.164062 17.195312 86.164062 17.59375 85.804688 C 18.058594 85.402344 18.394531 85.320312 18.164062 85.679688 C 18.097656 85.804688 18.164062 86.015625 18.308594 86.121094 C 18.539062 86.289062 18.539062 86.3125 18.246094 86.226562 C 18.058594 86.164062 17.761719 86.269531 17.574219 86.480469 C 17.152344 86.945312 17.132812 87.28125 17.53125 86.945312 C 17.996094 86.5625 19.570312 87.007812 20.097656 87.660156 C 20.390625 88.019531 20.644531 88.167969 20.875 88.0625 C 21.085938 88 21.464844 88.082031 21.714844 88.25 C 21.988281 88.421875 22.449219 88.527344 22.746094 88.460938 C 23.25 88.355469 24.175781 88.90625 25.605469 90.085938 C 25.75 90.214844 25.960938 90.257812 26.066406 90.191406 C 26.761719 89.769531 27.539062 90.804688 27.539062 92.15625 C 27.539062 92.828125 27.390625 93.0625 26.507812 93.820312 L 25.476562 94.730469 L 25.5625 96.246094 C 25.710938 98.441406 25.371094 99.371094 24.28125 99.792969 C 22.933594 100.296875 22.871094 100.382812 23.269531 100.972656 C 23.566406 101.417969 23.859375 102.472656 24.027344 103.589844 C 24.152344 104.539062 26.003906 106.4375 27.601562 107.28125 C 28.671875 107.851562 29.179688 108.441406 28.566406 108.441406 C 28.421875 108.441406 28.378906 108.652344 28.464844 108.96875 C 28.566406 109.371094 28.527344 109.496094 28.230469 109.496094 C 27.832031 109.496094 29.597656 111.289062 30.332031 111.605469 C 30.585938 111.734375 30.945312 111.902344 31.113281 112.007812 C 32.394531 112.808594 34.917969 113.652344 37.164062 114.03125 C 38.175781 114.222656 39.667969 114.496094 40.488281 114.667969 C 42 114.984375 47.234375 115.152344 50.765625 115.003906 C 51.816406 114.960938 53.6875 114.75 54.949219 114.539062 C 56.210938 114.308594 57.492188 114.136719 57.789062 114.136719 C 58.082031 114.136719 58.628906 113.992188 58.964844 113.800781 C 59.324219 113.609375 60.164062 113.378906 60.855469 113.273438 C 61.550781 113.148438 62.160156 112.976562 62.179688 112.851562 C 62.222656 112.746094 62.433594 112.660156 62.621094 112.660156 C 62.832031 112.660156 63.210938 112.472656 63.484375 112.238281 C 63.757812 112.007812 64.117188 111.816406 64.304688 111.816406 C 64.765625 111.816406 66.15625 110.339844 66.324219 109.6875 C 66.429688 109.222656 65.839844 107.957031 65.503906 108 C 65.082031 108.042969 64.136719 107.726562 64.242188 107.578125 C 64.304688 107.472656 64.242188 107.386719 64.136719 107.386719 C 63.589844 107.386719 64.03125 106.964844 65.945312 105.699219 C 71.515625 101.964844 76.078125 97.367188 79.039062 92.511719 C 79.523438 91.691406 80.113281 90.785156 80.324219 90.488281 L 80.703125 89.941406 L 78.664062 89.792969 C 77.546875 89.707031 75.65625 89.453125 74.457031 89.242188 C 71.914062 88.757812 71.726562 88.738281 72.039062 89.054688 C 72.417969 89.433594 71.808594 91.207031 70.820312 92.511719 C 70.128906 93.441406 69.601562 93.863281 68.53125 94.390625 C 66.175781 95.550781 65.460938 96.101562 65.101562 97.027344 C 64.832031 97.703125 64.558594 97.957031 63.757812 98.316406 C 63.210938 98.570312 62.476562 99.03125 62.117188 99.347656 C 60.332031 101.058594 56.800781 102.554688 53.878906 102.851562 C 52.53125 102.976562 52.324219 102.957031 52.21875 102.640625 C 52.132812 102.429688 52.21875 102.007812 52.425781 101.691406 C 52.867188 100.910156 52.847656 100.71875 52.238281 99.496094 C 51.753906 98.546875 51.734375 98.335938 51.921875 97.300781 C 52.089844 96.332031 52.070312 96.078125 51.753906 95.59375 C 51.144531 94.707031 50.871094 93.925781 50.871094 93.082031 C 50.871094 92.113281 51.566406 90.550781 52.070312 90.363281 C 52.953125 90.023438 53.183594 89.371094 52.722656 88.609375 C 52.511719 88.273438 52.53125 88.082031 52.828125 87.578125 L 53.183594 86.945312 L 52.238281 85.488281 C 51.734375 84.664062 51.019531 83.777344 50.683594 83.503906 C 49.527344 82.511719 49.484375 81.691406 50.515625 80.109375 C 50.703125 79.8125 50.871094 79.285156 50.871094 78.949219 C 50.871094 78.398438 50.789062 78.316406 50.09375 78.210938 C 49.652344 78.125 49.210938 78.167969 49.105469 78.273438 C 48.980469 78.398438 48.601562 78.484375 48.222656 78.484375 C 47.71875 78.484375 47.382812 78.292969 46.835938 77.683594 C 45.972656 76.710938 44.777344 76.4375 43.535156 76.902344 C 43.113281 77.050781 42.359375 77.28125 41.832031 77.40625 C 41.308594 77.554688 40.59375 77.765625 40.234375 77.871094 C 39.375 78.125 37.691406 78.105469 37.164062 77.828125 C 36.851562 77.660156 36.304688 77.660156 35.085938 77.871094 C 33.800781 78.082031 33.359375 78.082031 33.171875 77.894531 C 33.023438 77.746094 32.75 77.640625 32.5625 77.640625 C 32.351562 77.640625 32.164062 77.578125 32.121094 77.472656 C 32.101562 77.386719 31.425781 77.007812 30.648438 76.605469 C 29.871094 76.203125 29.074219 75.65625 28.882812 75.339844 C 28.464844 74.6875 27.222656 73.421875 27.011719 73.421875 C 26.929688 73.421875 26.632812 73.230469 26.339844 73 C 26.046875 72.765625 25.667969 72.574219 25.476562 72.574219 C 25.289062 72.574219 25.394531 72.765625 25.773438 73.039062 Z M 36.515625 78.398438 C 36.453125 78.460938 36.261719 78.484375 36.113281 78.421875 C 35.945312 78.355469 36.007812 78.292969 36.242188 78.292969 C 36.472656 78.273438 36.597656 78.335938 36.515625 78.398438 Z M 35.105469 78.695312 C 35.105469 78.800781 34.957031 78.90625 34.789062 78.90625 C 34.621094 78.90625 34.476562 78.800781 34.476562 78.695312 C 34.476562 78.566406 34.621094 78.484375 34.789062 78.484375 C 34.957031 78.484375 35.105469 78.566406 35.105469 78.695312 Z M 33.632812 79.328125 C 33.90625 79.515625 33.90625 79.582031 33.59375 79.769531 C 33.382812 79.875 33.214844 80.234375 33.214844 80.550781 C 33.191406 81.101562 33.191406 81.101562 32.898438 80.71875 C 32.6875 80.445312 32.644531 80.234375 32.792969 80.085938 C 32.898438 79.980469 33.003906 79.707031 33.003906 79.496094 C 33.003906 79.074219 33.171875 79.03125 33.632812 79.328125 Z M 30.964844 80.234375 C 31.027344 80.402344 30.902344 80.53125 30.671875 80.53125 C 30.230469 80.570312 30.125 80.253906 30.542969 80.109375 C 30.671875 80.042969 30.816406 79.980469 30.816406 79.980469 C 30.839844 79.960938 30.902344 80.085938 30.964844 80.234375 Z M 31.953125 80.804688 C 31.953125 80.910156 31.804688 81.015625 31.617188 81.015625 C 31.449219 81.015625 31.363281 80.910156 31.425781 80.804688 C 31.488281 80.675781 31.636719 80.59375 31.761719 80.59375 C 31.867188 80.59375 31.953125 80.675781 31.953125 80.804688 Z M 16.734375 83.882812 C 16.332031 84.285156 16.3125 84.390625 16.671875 84.390625 C 16.816406 84.390625 17.113281 84.09375 17.320312 83.738281 C 17.617188 83.230469 17.761719 83.144531 17.890625 83.355469 C 18.164062 83.777344 18.121094 83.96875 17.761719 83.96875 C 17.59375 83.96875 17.449219 84.03125 17.449219 84.117188 C 17.449219 84.222656 17.300781 84.476562 17.132812 84.6875 C 16.839844 85.085938 16.816406 85.085938 16.398438 84.707031 C 15.871094 84.222656 15.871094 84.09375 16.460938 83.503906 C 16.753906 83.1875 16.941406 83.105469 16.984375 83.273438 C 17.027344 83.421875 16.902344 83.695312 16.734375 83.882812 Z M 20.117188 84.304688 C 20.054688 84.371094 19.867188 84.390625 19.71875 84.328125 C 19.550781 84.265625 19.613281 84.199219 19.84375 84.199219 C 20.074219 84.179688 20.203125 84.242188 20.117188 84.304688 Z M 23.269531 84.726562 C 23.207031 84.792969 23.019531 84.8125 22.871094 84.75 C 22.703125 84.6875 22.765625 84.621094 22.996094 84.621094 C 23.230469 84.601562 23.355469 84.664062 23.269531 84.726562 Z M 18.917969 85.234375 C 18.917969 85.339844 18.8125 85.488281 18.667969 85.574219 C 18.519531 85.65625 18.5 85.636719 18.582031 85.488281 C 18.667969 85.339844 18.625 85.234375 18.519531 85.234375 C 18.394531 85.234375 18.289062 85.148438 18.289062 85.023438 C 18.289062 84.917969 18.4375 84.875 18.605469 84.9375 C 18.773438 85.023438 18.917969 85.148438 18.917969 85.234375 Z M 21.378906 86.207031 C 21.316406 86.269531 21.125 86.289062 20.980469 86.226562 C 20.8125 86.164062 20.875 86.101562 21.105469 86.101562 C 21.335938 86.078125 21.464844 86.140625 21.378906 86.207031 Z M 22.746094 86.605469 C 22.746094 86.710938 22.640625 86.839844 22.515625 86.878906 C 22.386719 86.921875 22.28125 86.796875 22.28125 86.605469 C 22.28125 86.417969 22.386719 86.289062 22.515625 86.332031 C 22.640625 86.375 22.746094 86.5 22.746094 86.605469 Z M 20.074219 86.710938 C 20.136719 86.816406 20.117188 86.921875 19.992188 86.921875 C 19.886719 86.921875 19.71875 86.816406 19.65625 86.710938 C 19.59375 86.585938 19.613281 86.5 19.738281 86.5 C 19.84375 86.5 20.011719 86.585938 20.074219 86.710938 Z M 24.804688 86.710938 C 24.804688 86.816406 24.761719 86.921875 24.722656 86.921875 C 24.65625 86.921875 24.554688 86.816406 24.488281 86.710938 C 24.425781 86.585938 24.46875 86.5 24.574219 86.5 C 24.699219 86.5 24.804688 86.585938 24.804688 86.710938 Z M 23.964844 87.15625 C 23.964844 87.261719 23.878906 87.34375 23.753906 87.34375 C 23.648438 87.34375 23.542969 87.195312 23.542969 87.007812 C 23.542969 86.839844 23.648438 86.753906 23.753906 86.816406 C 23.878906 86.878906 23.964844 87.027344 23.964844 87.15625 Z M 21.695312 87.429688 C 21.777344 87.789062 21.714844 87.914062 21.503906 87.828125 C 21.191406 87.703125 21.191406 87.703125 21.359375 87.261719 C 21.527344 86.796875 21.589844 86.839844 21.695312 87.429688 Z M 20.75 87.597656 C 20.683594 87.765625 20.621094 87.703125 20.621094 87.472656 C 20.601562 87.238281 20.664062 87.113281 20.726562 87.195312 C 20.789062 87.261719 20.8125 87.449219 20.75 87.597656 Z M 23.125 87.683594 C 23.125 87.722656 22.933594 87.765625 22.683594 87.765625 C 22.449219 87.765625 22.304688 87.683594 22.386719 87.554688 C 22.492188 87.386719 23.125 87.492188 23.125 87.683594 Z M 24.804688 88.609375 C 24.804688 88.714844 24.761719 88.820312 24.722656 88.820312 C 24.65625 88.820312 24.554688 88.714844 24.488281 88.609375 C 24.425781 88.484375 24.46875 88.398438 24.574219 88.398438 C 24.699219 88.398438 24.804688 88.484375 24.804688 88.609375 Z M 74.921875 92.597656 C 74.984375 92.703125 74.921875 93.019531 74.773438 93.273438 C 74.332031 94.117188 70.335938 97.976562 69.117188 98.78125 C 68.972656 98.863281 68.59375 98.949219 68.277344 98.949219 C 67.855469 98.949219 67.6875 98.84375 67.6875 98.570312 C 67.6875 98.167969 69.246094 96.417969 69.582031 96.417969 C 69.6875 96.417969 70 96.035156 70.253906 95.574219 C 70.527344 95.109375 71.03125 94.601562 71.367188 94.433594 C 71.726562 94.285156 72.335938 93.992188 72.753906 93.800781 C 73.175781 93.589844 73.742188 93.210938 74.015625 92.914062 C 74.519531 92.367188 74.753906 92.300781 74.921875 92.597656 Z M 74.921875 92.597656 "/>
<path style=" stroke:none;fill-rule:nonzero;fill:rgb(0%,0%,0%);fill-opacity:1;" d="M 25.183594 73.632812 C 25.246094 74.074219 25.351562 74.199219 25.667969 74.117188 C 26.191406 73.96875 26.171875 73.757812 25.582031 73.355469 C 25.097656 73.039062 25.097656 73.0625 25.183594 73.632812 Z M 25.183594 73.632812 "/>
<path style=" stroke:none;fill-rule:nonzero;fill:rgb(0%,0%,0%);fill-opacity:1;" d="M 27.011719 74.898438 C 27.074219 75.003906 27.242188 75.109375 27.347656 75.109375 C 27.476562 75.109375 27.496094 75.003906 27.433594 74.898438 C 27.371094 74.769531 27.203125 74.6875 27.097656 74.6875 C 26.96875 74.6875 26.949219 74.769531 27.011719 74.898438 Z M 27.011719 74.898438 "/>
<path style=" stroke:none;fill-rule:nonzero;fill:rgb(0%,0%,0%);fill-opacity:1;" d="M 8.199219 76.140625 C 8.199219 76.269531 8.28125 76.414062 8.410156 76.480469 C 8.535156 76.542969 8.554688 76.457031 8.492188 76.289062 C 8.34375 75.910156 8.199219 75.847656 8.199219 76.140625 Z M 8.199219 76.140625 "/>
<path style=" stroke:none;fill-rule:nonzero;fill:rgb(0%,0%,0%);fill-opacity:1;" d="M 10.046875 76.730469 C 9.566406 76.859375 9.585938 77.113281 10.089844 78.25 C 10.59375 79.347656 10.59375 79.328125 10.175781 79.328125 C 9.878906 79.328125 9.878906 79.390625 10.089844 79.644531 C 10.238281 79.832031 10.300781 80.023438 10.214844 80.109375 C 9.964844 80.359375 9.480469 79.453125 9.691406 79.074219 C 9.941406 78.609375 9.921875 78.273438 9.667969 78.273438 C 9.566406 78.273438 9.460938 78.503906 9.460938 78.777344 C 9.460938 79.054688 9.332031 79.347656 9.207031 79.390625 C 8.996094 79.476562 8.996094 79.515625 9.207031 79.515625 C 9.332031 79.539062 9.460938 79.664062 9.460938 79.832031 C 9.460938 80.003906 9.628906 80.191406 9.839844 80.253906 C 10.070312 80.339844 10.363281 80.613281 10.511719 80.886719 C 10.65625 81.183594 10.929688 81.457031 11.121094 81.523438 C 11.308594 81.585938 11.582031 81.710938 11.730469 81.773438 C 11.878906 81.839844 11.980469 81.753906 11.980469 81.585938 C 11.980469 81.394531 11.707031 81.207031 11.371094 81.121094 C 10.699219 80.972656 10.511719 80.570312 10.742188 79.726562 C 10.929688 78.988281 10.742188 78.0625 10.382812 78.0625 C 9.984375 78.0625 10.007812 77.660156 10.425781 77.195312 C 10.785156 76.796875 10.617188 76.605469 10.046875 76.730469 Z M 10.046875 76.730469 "/>
<path style=" stroke:none;fill-rule:nonzero;fill:rgb(0%,0%,0%);fill-opacity:1;" d="M 7.925781 77.15625 C 7.863281 77.261719 8.070312 77.511719 8.429688 77.722656 C 9.019531 78.082031 9.039062 78.082031 9.039062 77.660156 C 9.039062 77.40625 8.957031 77.21875 8.851562 77.21875 C 8.746094 77.21875 8.515625 77.15625 8.34375 77.089844 C 8.175781 77.027344 7.988281 77.070312 7.925781 77.15625 Z M 7.925781 77.15625 "/>
<path style=" stroke:none;fill-rule:nonzero;fill:rgb(0%,0%,0%);fill-opacity:1;" d="M 28.589844 77.300781 C 28.589844 77.34375 28.734375 77.429688 28.90625 77.511719 C 29.074219 77.578125 29.21875 77.535156 29.21875 77.429688 C 29.21875 77.300781 29.074219 77.21875 28.90625 77.21875 C 28.734375 77.21875 28.589844 77.261719 28.589844 77.300781 Z M 28.589844 77.300781 "/>
<path style=" stroke:none;fill-rule:nonzero;fill:rgb(0%,0%,0%);fill-opacity:1;" d="M 10.722656 77.660156 C 10.722656 77.765625 10.824219 77.808594 10.929688 77.746094 C 11.058594 77.683594 11.140625 77.578125 11.140625 77.511719 C 11.140625 77.472656 11.058594 77.429688 10.929688 77.429688 C 10.824219 77.429688 10.722656 77.535156 10.722656 77.660156 Z M 10.722656 77.660156 "/>
<path style=" stroke:none;fill-rule:nonzero;fill:rgb(0%,0%,0%);fill-opacity:1;" d="M 11.140625 78.460938 C 11.140625 78.695312 11.246094 78.90625 11.371094 78.949219 C 11.644531 79.03125 11.730469 80.359375 11.476562 80.761719 C 11.394531 80.910156 11.457031 81.015625 11.644531 81.015625 C 11.835938 81.015625 12.003906 80.910156 12.003906 80.804688 C 12.023438 80.675781 12.046875 80.464844 12.066406 80.320312 C 12.066406 80.191406 12.339844 80.042969 12.675781 80.003906 C 13.453125 79.917969 13.390625 79.539062 12.59375 79.539062 C 12.066406 79.539062 11.917969 79.410156 11.644531 78.800781 C 11.308594 77.976562 11.140625 77.871094 11.140625 78.460938 Z M 11.140625 78.460938 "/>
<path style=" stroke:none;fill-rule:nonzero;fill:rgb(0%,0%,0%);fill-opacity:1;" d="M 12.84375 80.613281 C 12.550781 80.847656 12.464844 81.015625 12.632812 81.015625 C 12.824219 81.035156 12.800781 81.101562 12.550781 81.246094 C 12.109375 81.5 12.277344 81.859375 12.84375 81.859375 C 13.097656 81.859375 13.242188 81.710938 13.242188 81.4375 C 13.242188 81.207031 13.347656 81.015625 13.453125 81.015625 C 13.707031 81.015625 13.746094 80.445312 13.496094 80.320312 C 13.410156 80.253906 13.117188 80.382812 12.84375 80.613281 Z M 12.84375 80.613281 "/>
<path style=" stroke:none;fill-rule:nonzero;fill:rgb(0%,0%,0%);fill-opacity:1;" d="M 16.816406 80.804688 C 16.816406 80.910156 16.921875 81.015625 17.046875 81.015625 C 17.152344 81.015625 17.195312 80.910156 17.132812 80.804688 C 17.070312 80.675781 16.964844 80.59375 16.902344 80.59375 C 16.859375 80.59375 16.816406 80.675781 16.816406 80.804688 Z M 16.816406 80.804688 "/>
<path style=" stroke:none;fill-rule:nonzero;fill:rgb(0%,0%,0%);fill-opacity:1;" d="M 20.179688 81.4375 C 20.179688 81.667969 20.265625 81.859375 20.371094 81.859375 C 20.476562 81.859375 20.601562 81.667969 20.664062 81.4375 C 20.726562 81.164062 20.664062 81.015625 20.476562 81.015625 C 20.308594 81.015625 20.179688 81.207031 20.179688 81.4375 Z M 20.179688 81.4375 "/>
<path style=" stroke:none;fill-rule:nonzero;fill:rgb(0%,0%,0%);fill-opacity:1;" d="M 12.613281 82.15625 C 12.613281 82.195312 12.761719 82.28125 12.929688 82.367188 C 13.097656 82.429688 13.242188 82.386719 13.242188 82.28125 C 13.242188 82.15625 13.097656 82.070312 12.929688 82.070312 C 12.761719 82.070312 12.613281 82.113281 12.613281 82.15625 Z M 12.613281 82.15625 "/>
<path style=" stroke:none;fill-rule:nonzero;fill:rgb(0%,0%,0%);fill-opacity:1;" d="M 60.207031 83.316406 C 60.351562 83.546875 61.171875 84.054688 61.171875 83.90625 C 61.171875 83.84375 60.921875 83.652344 60.625 83.441406 C 60.308594 83.25 60.140625 83.1875 60.207031 83.316406 Z M 60.207031 83.316406 "/>
<path style=" stroke:none;fill-rule:nonzero;fill:rgb(0%,0%,0%);fill-opacity:1;" d="M 61.382812 84.179688 C 61.382812 84.285156 61.488281 84.390625 61.613281 84.390625 C 61.71875 84.390625 61.761719 84.285156 61.699219 84.179688 C 61.636719 84.054688 61.53125 83.96875 61.464844 83.96875 C 61.425781 83.96875 61.382812 84.054688 61.382812 84.179688 Z M 61.382812 84.179688 "/>
<path style=" stroke:none;fill-rule:nonzero;fill:rgb(0%,0%,0%);fill-opacity:1;" d="M 65.101562 86.3125 C 65.25 86.457031 65.417969 86.523438 65.480469 86.457031 C 65.542969 86.394531 65.441406 86.269531 65.230469 86.207031 C 64.933594 86.078125 64.914062 86.101562 65.101562 86.3125 Z M 65.101562 86.3125 "/>
<path style=" stroke:none;fill-rule:nonzero;fill:rgb(0%,0%,0%);fill-opacity:1;" d="M 68.066406 87.703125 C 68.214844 87.765625 68.402344 87.746094 68.46875 87.683594 C 68.550781 87.617188 68.425781 87.554688 68.195312 87.578125 C 67.960938 87.578125 67.898438 87.640625 68.066406 87.703125 Z M 68.066406 87.703125 "/>
<path style=" stroke:none;fill-rule:nonzero;fill:rgb(0%,0%,0%);fill-opacity:1;" d="M 69.328125 88.125 C 69.476562 88.1875 69.664062 88.167969 69.726562 88.105469 C 69.8125 88.039062 69.6875 87.976562 69.453125 88 C 69.222656 88 69.160156 88.0625 69.328125 88.125 Z M 69.328125 88.125 "/>
<path style=" stroke:none;fill-rule:nonzero;fill:rgb(0%,0%,0%);fill-opacity:1;" d="M 70.589844 88.546875 C 70.738281 88.609375 70.925781 88.589844 70.988281 88.527344 C 71.074219 88.460938 70.949219 88.398438 70.714844 88.421875 C 70.484375 88.421875 70.421875 88.484375 70.589844 88.546875 Z M 70.589844 88.546875 "/>
<path style=" stroke:none;fill-rule:nonzero;fill:rgb(0%,0%,0%);fill-opacity:1;" d="M 86.882812 89.390625 C 87.070312 89.433594 87.40625 89.433594 87.617188 89.390625 C 87.804688 89.328125 87.636719 89.285156 87.238281 89.285156 C 86.839844 89.285156 86.671875 89.328125 86.882812 89.390625 Z M 86.882812 89.390625 "/>
<path style=" stroke:none;fill-rule:nonzero;fill:rgb(0%,0%,0%);fill-opacity:1;" d="M 83.832031 89.8125 C 84.085938 89.855469 84.507812 89.855469 84.78125 89.8125 C 85.03125 89.769531 84.820312 89.730469 84.296875 89.730469 C 83.769531 89.730469 83.558594 89.769531 83.832031 89.8125 Z M 83.832031 89.8125 "/>
<path style=" stroke:none;fill-rule:nonzero;fill:rgb(0%,0%,0%);fill-opacity:1;" d="M 13.664062 96.839844 C 13.664062 96.945312 13.769531 97.050781 13.894531 97.050781 C 14 97.050781 14.042969 96.945312 13.980469 96.839844 C 13.917969 96.710938 13.8125 96.628906 13.746094 96.628906 C 13.707031 96.628906 13.664062 96.710938 13.664062 96.839844 Z M 13.664062 96.839844 "/>
</g>
</svg>
